<svg width="434" height="131" viewBox="0 0 434 131" fill="none" xmlns="http://www.w3.org/2000/svg">
<path d="M77.9008 65.407L93.5626 30.2682H101.594L117.306 65.407H108.773L95.9219 34.3845H99.1346L86.2337 65.407H77.9008ZM85.7317 57.8772L87.8902 51.7029H105.962L108.17 57.8772H85.7317ZM120.199 65.407V30.2682H128.331V58.7808H145.951V65.407H120.199ZM165.97 66.0094C163.259 66.0094 160.732 65.5743 158.39 64.7042C156.081 63.8006 154.073 62.529 152.366 60.8891C150.659 59.2493 149.321 57.3251 148.35 55.1163C147.413 52.9076 146.944 50.4814 146.944 47.8376C146.944 45.1938 147.413 42.7676 148.35 40.5589C149.321 38.3501 150.659 36.4259 152.366 34.7861C154.106 33.1463 156.131 31.8913 158.44 31.0212C160.749 30.1176 163.276 29.6658 166.02 29.6658C169.065 29.6658 171.809 30.2013 174.252 31.2722C176.729 32.3096 178.804 33.849 180.477 35.8904L175.256 40.7095C174.052 39.3374 172.713 38.3167 171.24 37.6474C169.768 36.9446 168.162 36.5932 166.421 36.5932C164.782 36.5932 163.276 36.8609 161.904 37.3964C160.531 37.9318 159.343 38.7015 158.339 39.7055C157.336 40.7095 156.549 41.8975 155.98 43.2696C155.445 44.6417 155.177 46.1643 155.177 47.8376C155.177 49.5109 155.445 51.0336 155.98 52.4056C156.549 53.7777 157.336 54.9658 158.339 55.9697C159.343 56.9737 160.531 57.7434 161.904 58.2788C163.276 58.8143 164.782 59.082 166.421 59.082C168.162 59.082 169.768 58.7474 171.24 58.078C172.713 57.3753 174.052 56.3211 175.256 54.9156L180.477 59.7346C178.804 61.776 176.729 63.3321 174.252 64.403C171.809 65.4739 169.048 66.0094 165.97 66.0094ZM209.311 30.2682H217.443V65.407H209.311V30.2682ZM193.348 65.407H185.216V30.2682H193.348V65.407ZM209.913 51.0001H192.745V44.1229H209.913V51.0001ZM232.483 44.4241H249.4V50.7491H232.483V44.4241ZM233.085 58.8812H252.211V65.407H225.004V30.2682H251.558V36.794H233.085V58.8812ZM257.928 65.407V30.2682H273.139C276.284 30.2682 278.995 30.7869 281.271 31.8244C283.546 32.8283 285.303 34.2841 286.541 36.1916C287.78 38.0991 288.399 40.3748 288.399 43.0186C288.399 45.6289 287.78 47.8878 286.541 49.7953C285.303 51.6694 283.546 53.1084 281.271 54.1124C278.995 55.1163 276.284 55.6183 273.139 55.6183H262.446L266.061 52.0543V65.407H257.928ZM280.267 65.407L271.482 52.6566H280.166L289.051 65.407H280.267ZM266.061 52.9578L262.446 49.1428H272.687C275.197 49.1428 277.071 48.6073 278.309 47.5364C279.547 46.4321 280.166 44.9261 280.166 43.0186C280.166 41.0776 279.547 39.5716 278.309 38.5007C277.071 37.4298 275.197 36.8944 272.687 36.8944H262.446L266.061 33.0291V52.9578ZM294.089 65.407V30.2682H302.221V65.407H294.089ZM309.807 65.407V30.2682H316.534L337.266 55.5681H334.003V30.2682H342.034V65.407H335.358L314.576 40.1071H317.839V65.407H309.807ZM366.562 66.0094C363.784 66.0094 361.224 65.5743 358.882 64.7042C356.573 63.8006 354.548 62.529 352.808 60.8891C351.101 59.2493 349.762 57.3251 348.792 55.1163C347.855 52.9076 347.386 50.4814 347.386 47.8376C347.386 45.1938 347.855 42.7676 348.792 40.5589C349.762 38.3501 351.118 36.4259 352.858 34.7861C354.598 33.1463 356.64 31.8913 358.982 31.0212C361.325 30.1176 363.902 29.6658 366.713 29.6658C369.825 29.6658 372.619 30.1846 375.096 31.222C377.606 32.2594 379.714 33.7654 381.421 35.7398L376.2 40.5589C374.928 39.2202 373.54 38.233 372.034 37.5972C370.528 36.9279 368.888 36.5932 367.114 36.5932C365.408 36.5932 363.851 36.8609 362.446 37.3964C361.04 37.9318 359.819 38.7015 358.781 39.7055C357.777 40.7095 356.991 41.8975 356.422 43.2696C355.887 44.6417 355.619 46.1643 355.619 47.8376C355.619 49.4774 355.887 50.9834 356.422 52.3554C356.991 53.7275 357.777 54.9323 358.781 55.9697C359.819 56.9737 361.024 57.7434 362.396 58.2788C363.801 58.8143 365.341 59.082 367.014 59.082C368.62 59.082 370.176 58.831 371.682 58.329C373.222 57.7936 374.711 56.9067 376.15 55.6685L380.768 61.5417C378.861 62.9807 376.635 64.0851 374.092 64.8548C371.582 65.6245 369.072 66.0094 366.562 66.0094ZM373.339 60.4876V47.2854H380.768V61.5417L373.339 60.4876ZM382.951 65.407L398.613 30.2682H406.645L422.357 65.407H413.823L400.972 34.3845H404.185L391.284 65.407H382.951ZM390.782 57.8772L392.94 51.7029H411.012L413.221 57.8772H390.782Z" fill="#F8F1DE"/>
<path d="M3.37583 123.183V104.011H5.62172L18.3028 119.76H17.125V104.011H19.8639V123.183H17.618L4.93699 107.435H6.11472V123.183H3.37583ZM31.0255 123.348C29.5648 123.348 28.2684 123.028 27.1363 122.389C26.0042 121.75 25.1095 120.874 24.4522 119.76C23.7949 118.628 23.4662 117.35 23.4662 115.925C23.4662 114.483 23.7949 113.205 24.4522 112.091C25.1095 110.977 26.0042 110.11 27.1363 109.489C28.2684 108.85 29.5648 108.53 31.0255 108.53C32.468 108.53 33.7553 108.85 34.8873 109.489C36.0377 110.11 36.9324 110.977 37.5715 112.091C38.2288 113.186 38.5575 114.465 38.5575 115.925C38.5575 117.368 38.2288 118.646 37.5715 119.76C36.9324 120.874 36.0377 121.75 34.8873 122.389C33.7553 123.028 32.468 123.348 31.0255 123.348ZM31.0255 121.047C31.9567 121.047 32.7875 120.837 33.5179 120.417C34.2665 119.997 34.8508 119.404 35.2708 118.637C35.6908 117.852 35.9007 116.948 35.9007 115.925C35.9007 114.885 35.6908 113.99 35.2708 113.241C34.8508 112.474 34.2665 111.881 33.5179 111.461C32.7875 111.041 31.9567 110.831 31.0255 110.831C30.0943 110.831 29.2635 111.041 28.5331 111.461C27.8028 111.881 27.2185 112.474 26.7802 113.241C26.342 113.99 26.1229 114.885 26.1229 115.925C26.1229 116.948 26.342 117.852 26.7802 118.637C27.2185 119.404 27.8028 119.997 28.5331 120.417C29.2635 120.837 30.0943 121.047 31.0255 121.047ZM41.7829 123.183V108.667H44.3027V112.611L44.0562 111.625C44.4579 110.621 45.1335 109.854 46.083 109.325C47.0325 108.795 48.201 108.53 49.5887 108.53V111.077C49.4792 111.059 49.3696 111.05 49.2601 111.05C49.1688 111.05 49.0775 111.05 48.9862 111.05C47.5802 111.05 46.4664 111.47 45.6447 112.31C44.8231 113.15 44.4123 114.364 44.4123 115.953V123.183H41.7829ZM57.9918 123.348C56.531 123.348 55.399 122.955 54.5956 122.17C53.7922 121.385 53.3904 120.262 53.3904 118.801V105.49H56.0198V118.692C56.0198 119.477 56.2115 120.079 56.5949 120.499C56.9966 120.919 57.5627 121.129 58.2931 121.129C59.1147 121.129 59.7994 120.901 60.3472 120.444L61.1689 122.334C60.7672 122.681 60.2833 122.937 59.7173 123.101C59.1695 123.266 58.5943 123.348 57.9918 123.348ZM50.9255 110.831V108.667H60.1829V110.831H50.9255ZM71.6879 108.53C72.8748 108.53 73.9155 108.759 74.8102 109.215C75.7232 109.672 76.4353 110.365 76.9466 111.297C77.4578 112.228 77.7135 113.406 77.7135 114.83V123.183H75.0841V115.131C75.0841 113.725 74.7372 112.666 74.0434 111.954C73.3678 111.242 72.4092 110.886 71.1675 110.886C70.2363 110.886 69.4238 111.068 68.7299 111.434C68.0361 111.799 67.4974 112.337 67.114 113.049C66.7488 113.762 66.5662 114.647 66.5662 115.706V123.183H63.9369V102.861H66.5662V112.584L66.0458 111.543C66.5206 110.594 67.2509 109.854 68.2369 109.325C69.2229 108.795 70.3733 108.53 71.6879 108.53ZM88.6324 123.348C87.0804 123.348 85.7109 123.028 84.5241 122.389C83.3555 121.75 82.4425 120.874 81.7852 119.76C81.1461 118.646 80.8266 117.368 80.8266 115.925C80.8266 114.483 81.137 113.205 81.7578 112.091C82.3969 110.977 83.2642 110.11 84.3598 109.489C85.4736 108.85 86.7243 108.53 88.112 108.53C89.518 108.53 90.7596 108.841 91.8369 109.462C92.9142 110.082 93.7541 110.959 94.3567 112.091C94.9775 113.205 95.2879 114.51 95.2879 116.007C95.2879 116.117 95.2788 116.245 95.2605 116.391C95.2605 116.537 95.2514 116.674 95.2331 116.802H82.8808V114.912H93.8637L92.7955 115.569C92.8138 114.638 92.6221 113.807 92.2204 113.077C91.8187 112.346 91.2617 111.78 90.5496 111.379C89.8558 110.959 89.0433 110.749 88.112 110.749C87.1991 110.749 86.3865 110.959 85.6744 111.379C84.9623 111.78 84.4054 112.356 84.0037 113.104C83.602 113.835 83.4011 114.675 83.4011 115.624V116.062C83.4011 117.03 83.6203 117.897 84.0585 118.664C84.515 119.413 85.1449 119.997 85.9483 120.417C86.7517 120.837 87.6738 121.047 88.7146 121.047C89.5728 121.047 90.3488 120.901 91.0426 120.609C91.7547 120.317 92.3756 119.878 92.9051 119.294L94.3567 120.992C93.6994 121.759 92.8777 122.343 91.8917 122.745C90.924 123.147 89.8375 123.348 88.6324 123.348ZM107.138 123.183V120.116L107.001 119.541V114.309C107.001 113.196 106.672 112.337 106.015 111.735C105.376 111.114 104.408 110.804 103.112 110.804C102.254 110.804 101.414 110.95 100.592 111.242C99.7703 111.516 99.0764 111.89 98.5104 112.365L97.4148 110.393C98.1634 109.79 99.0582 109.334 100.099 109.023C101.158 108.695 102.263 108.53 103.413 108.53C105.403 108.53 106.937 109.014 108.014 109.982C109.092 110.95 109.63 112.429 109.63 114.419V123.183H107.138ZM102.372 123.348C101.295 123.348 100.345 123.165 99.5238 122.8C98.7204 122.435 98.0995 121.933 97.6613 121.294C97.2231 120.636 97.004 119.897 97.004 119.075C97.004 118.29 97.1866 117.578 97.5518 116.939C97.9352 116.3 98.5469 115.788 99.3868 115.405C100.245 115.021 101.395 114.83 102.838 114.83H107.439V116.72H102.947C101.633 116.72 100.747 116.939 100.291 117.377C99.8342 117.815 99.6059 118.345 99.6059 118.965C99.6059 119.678 99.8889 120.253 100.455 120.691C101.021 121.111 101.806 121.321 102.81 121.321C103.796 121.321 104.655 121.102 105.385 120.664C106.134 120.225 106.672 119.586 107.001 118.746L107.521 120.554C107.174 121.412 106.563 122.097 105.686 122.608C104.81 123.101 103.705 123.348 102.372 123.348ZM118.248 123.348C117.043 123.348 115.893 123.183 114.797 122.855C113.72 122.526 112.871 122.124 112.25 121.65L113.346 119.568C113.967 119.988 114.733 120.344 115.646 120.636C116.559 120.928 117.491 121.074 118.44 121.074C119.663 121.074 120.54 120.901 121.069 120.554C121.617 120.207 121.891 119.723 121.891 119.102C121.891 118.646 121.727 118.29 121.398 118.034C121.069 117.779 120.631 117.587 120.083 117.459C119.554 117.331 118.96 117.222 118.303 117.13C117.646 117.021 116.988 116.893 116.331 116.747C115.674 116.583 115.071 116.364 114.523 116.09C113.976 115.797 113.537 115.405 113.209 114.912C112.88 114.401 112.716 113.725 112.716 112.885C112.716 112.009 112.962 111.242 113.455 110.584C113.948 109.927 114.642 109.425 115.537 109.078C116.45 108.713 117.527 108.53 118.769 108.53C119.718 108.53 120.677 108.649 121.645 108.886C122.631 109.105 123.434 109.425 124.055 109.845L122.932 111.927C122.274 111.488 121.59 111.187 120.878 111.023C120.166 110.858 119.453 110.776 118.741 110.776C117.591 110.776 116.733 110.968 116.167 111.351C115.601 111.717 115.318 112.191 115.318 112.776C115.318 113.269 115.482 113.652 115.811 113.926C116.158 114.182 116.596 114.382 117.125 114.528C117.673 114.675 118.276 114.802 118.933 114.912C119.59 115.003 120.248 115.131 120.905 115.295C121.562 115.441 122.156 115.651 122.685 115.925C123.233 116.199 123.671 116.583 124 117.076C124.347 117.569 124.52 118.226 124.52 119.048C124.52 119.924 124.265 120.682 123.753 121.321C123.242 121.96 122.521 122.462 121.59 122.827C120.659 123.174 119.545 123.348 118.248 123.348ZM132.38 123.348C130.92 123.348 129.788 122.955 128.984 122.17C128.181 121.385 127.779 120.262 127.779 118.801V105.49H130.408V118.692C130.408 119.477 130.6 120.079 130.984 120.499C131.385 120.919 131.951 121.129 132.682 121.129C133.503 121.129 134.188 120.901 134.736 120.444L135.557 122.334C135.156 122.681 134.672 122.937 134.106 123.101C133.558 123.266 132.983 123.348 132.38 123.348ZM125.314 110.831V108.667H134.571V110.831H125.314ZM137.285 110.338L138.654 104.778L139.01 106.367C138.481 106.367 138.033 106.202 137.668 105.874C137.321 105.545 137.148 105.107 137.148 104.559C137.148 103.993 137.321 103.546 137.668 103.217C138.033 102.87 138.471 102.696 138.983 102.696C139.512 102.696 139.941 102.879 140.27 103.244C140.599 103.591 140.763 104.029 140.763 104.559C140.763 104.723 140.754 104.897 140.736 105.079C140.717 105.244 140.672 105.435 140.599 105.654C140.544 105.874 140.453 106.157 140.325 106.504L139.01 110.338H137.285ZM147.828 123.348C146.623 123.348 145.473 123.183 144.377 122.855C143.3 122.526 142.451 122.124 141.83 121.65L142.926 119.568C143.546 119.988 144.313 120.344 145.226 120.636C146.139 120.928 147.071 121.074 148.02 121.074C149.243 121.074 150.12 120.901 150.649 120.554C151.197 120.207 151.471 119.723 151.471 119.102C151.471 118.646 151.307 118.29 150.978 118.034C150.649 117.779 150.211 117.587 149.663 117.459C149.134 117.331 148.54 117.222 147.883 117.13C147.226 117.021 146.568 116.893 145.911 116.747C145.254 116.583 144.651 116.364 144.103 116.09C143.556 115.797 143.117 115.405 142.789 114.912C142.46 114.401 142.296 113.725 142.296 112.885C142.296 112.009 142.542 111.242 143.035 110.584C143.528 109.927 144.222 109.425 145.117 109.078C146.03 108.713 147.107 108.53 148.349 108.53C149.298 108.53 150.257 108.649 151.225 108.886C152.21 109.105 153.014 109.425 153.635 109.845L152.512 111.927C151.854 111.488 151.17 111.187 150.458 111.023C149.746 110.858 149.033 110.776 148.321 110.776C147.171 110.776 146.313 110.968 145.747 111.351C145.181 111.717 144.898 112.191 144.898 112.776C144.898 113.269 145.062 113.652 145.391 113.926C145.738 114.182 146.176 114.382 146.705 114.528C147.253 114.675 147.856 114.802 148.513 114.912C149.17 115.003 149.828 115.131 150.485 115.295C151.142 115.441 151.736 115.651 152.265 115.925C152.813 116.199 153.251 116.583 153.58 117.076C153.927 117.569 154.1 118.226 154.1 119.048C154.1 119.924 153.845 120.682 153.333 121.321C152.822 121.96 152.101 122.462 151.17 122.827C150.239 123.174 149.125 123.348 147.828 123.348ZM164.304 123.183V104.011H167.042V120.801H177.423V123.183H164.304ZM188.782 123.183V120.116L188.645 119.541V114.309C188.645 113.196 188.317 112.337 187.659 111.735C187.02 111.114 186.053 110.804 184.756 110.804C183.898 110.804 183.058 110.95 182.236 111.242C181.415 111.516 180.721 111.89 180.155 112.365L179.059 110.393C179.808 109.79 180.703 109.334 181.743 109.023C182.802 108.695 183.907 108.53 185.057 108.53C187.048 108.53 188.581 109.014 189.659 109.982C190.736 110.95 191.275 112.429 191.275 114.419V123.183H188.782ZM184.017 123.348C182.939 123.348 181.99 123.165 181.168 122.8C180.365 122.435 179.744 121.933 179.306 121.294C178.868 120.636 178.648 119.897 178.648 119.075C178.648 118.29 178.831 117.578 179.196 116.939C179.58 116.3 180.191 115.788 181.031 115.405C181.889 115.021 183.04 114.83 184.482 114.83H189.084V116.72H184.592C183.277 116.72 182.392 116.939 181.935 117.377C181.479 117.815 181.25 118.345 181.25 118.965C181.25 119.678 181.533 120.253 182.099 120.691C182.665 121.111 183.451 121.321 184.455 121.321C185.441 121.321 186.299 121.102 187.029 120.664C187.778 120.225 188.317 119.586 188.645 118.746L189.166 120.554C188.819 121.412 188.207 122.097 187.331 122.608C186.454 123.101 185.35 123.348 184.017 123.348ZM195.73 123.183V108.667H198.249V112.611L198.003 111.625C198.405 110.621 199.08 109.854 200.03 109.325C200.979 108.795 202.148 108.53 203.535 108.53V111.077C203.426 111.059 203.316 111.05 203.207 111.05C203.116 111.05 203.024 111.05 202.933 111.05C201.527 111.05 200.413 111.47 199.592 112.31C198.77 113.15 198.359 114.364 198.359 115.953V123.183H195.73ZM212.586 128.661C211.253 128.661 209.956 128.469 208.697 128.086C207.455 127.721 206.442 127.191 205.656 126.497L206.916 124.471C207.592 125.055 208.423 125.511 209.409 125.84C210.395 126.187 211.426 126.36 212.504 126.36C214.22 126.36 215.48 125.959 216.283 125.155C217.087 124.352 217.488 123.129 217.488 121.485V118.418L217.762 115.542L217.625 112.639V108.667H220.118V121.211C220.118 123.768 219.479 125.648 218.201 126.853C216.922 128.059 215.051 128.661 212.586 128.661ZM212.257 122.581C210.851 122.581 209.591 122.289 208.477 121.704C207.382 121.102 206.505 120.271 205.848 119.212C205.209 118.153 204.89 116.93 204.89 115.542C204.89 114.136 205.209 112.913 205.848 111.872C206.505 110.813 207.382 109.991 208.477 109.407C209.591 108.822 210.851 108.53 212.257 108.53C213.499 108.53 214.631 108.786 215.653 109.297C216.676 109.79 217.488 110.557 218.091 111.598C218.712 112.639 219.022 113.953 219.022 115.542C219.022 117.112 218.712 118.418 218.091 119.458C217.488 120.499 216.676 121.284 215.653 121.814C214.631 122.325 213.499 122.581 212.257 122.581ZM212.558 120.28C213.526 120.28 214.384 120.079 215.133 119.678C215.882 119.276 216.466 118.719 216.886 118.007C217.324 117.295 217.543 116.473 217.543 115.542C217.543 114.611 217.324 113.789 216.886 113.077C216.466 112.365 215.882 111.817 215.133 111.434C214.384 111.032 213.526 110.831 212.558 110.831C211.591 110.831 210.723 111.032 209.956 111.434C209.208 111.817 208.614 112.365 208.176 113.077C207.756 113.789 207.546 114.611 207.546 115.542C207.546 116.473 207.756 117.295 208.176 118.007C208.614 118.719 209.208 119.276 209.956 119.678C210.723 120.079 211.591 120.28 212.558 120.28ZM231.195 123.348C229.643 123.348 228.273 123.028 227.086 122.389C225.918 121.75 225.005 120.874 224.347 119.76C223.708 118.646 223.389 117.368 223.389 115.925C223.389 114.483 223.699 113.205 224.32 112.091C224.959 110.977 225.826 110.11 226.922 109.489C228.036 108.85 229.287 108.53 230.674 108.53C232.08 108.53 233.322 108.841 234.399 109.462C235.476 110.082 236.316 110.959 236.919 112.091C237.54 113.205 237.85 114.51 237.85 116.007C237.85 116.117 237.841 116.245 237.823 116.391C237.823 116.537 237.814 116.674 237.795 116.802H225.443V114.912H236.426L235.358 115.569C235.376 114.638 235.184 113.807 234.783 113.077C234.381 112.346 233.824 111.78 233.112 111.379C232.418 110.959 231.605 110.749 230.674 110.749C229.761 110.749 228.949 110.959 228.237 111.379C227.524 111.78 226.968 112.356 226.566 113.104C226.164 113.835 225.963 114.675 225.963 115.624V116.062C225.963 117.03 226.182 117.897 226.621 118.664C227.077 119.413 227.707 119.997 228.51 120.417C229.314 120.837 230.236 121.047 231.277 121.047C232.135 121.047 232.911 120.901 233.605 120.609C234.317 120.317 234.938 119.878 235.467 119.294L236.919 120.992C236.262 121.759 235.44 122.343 234.454 122.745C233.486 123.147 232.4 123.348 231.195 123.348ZM245.253 123.348C244.048 123.348 242.898 123.183 241.802 122.855C240.725 122.526 239.876 122.124 239.255 121.65L240.351 119.568C240.972 119.988 241.739 120.344 242.651 120.636C243.564 120.928 244.496 121.074 245.445 121.074C246.669 121.074 247.545 120.901 248.074 120.554C248.622 120.207 248.896 119.723 248.896 119.102C248.896 118.646 248.732 118.29 248.403 118.034C248.074 117.779 247.636 117.587 247.088 117.459C246.559 117.331 245.966 117.222 245.308 117.13C244.651 117.021 243.994 116.893 243.336 116.747C242.679 116.583 242.076 116.364 241.529 116.09C240.981 115.797 240.543 115.405 240.214 114.912C239.885 114.401 239.721 113.725 239.721 112.885C239.721 112.009 239.967 111.242 240.46 110.584C240.953 109.927 241.647 109.425 242.542 109.078C243.455 108.713 244.532 108.53 245.774 108.53C246.723 108.53 247.682 108.649 248.65 108.886C249.636 109.105 250.439 109.425 251.06 109.845L249.937 111.927C249.28 111.488 248.595 111.187 247.883 111.023C247.171 110.858 246.459 110.776 245.746 110.776C244.596 110.776 243.738 110.968 243.172 111.351C242.606 111.717 242.323 112.191 242.323 112.776C242.323 113.269 242.487 113.652 242.816 113.926C243.163 114.182 243.601 114.382 244.13 114.528C244.678 114.675 245.281 114.802 245.938 114.912C246.595 115.003 247.253 115.131 247.91 115.295C248.567 115.441 249.161 115.651 249.69 115.925C250.238 116.199 250.676 116.583 251.005 117.076C251.352 117.569 251.525 118.226 251.525 119.048C251.525 119.924 251.27 120.682 250.759 121.321C250.247 121.96 249.526 122.462 248.595 122.827C247.664 123.174 246.55 123.348 245.253 123.348ZM259.385 123.348C257.925 123.348 256.793 122.955 255.989 122.17C255.186 121.385 254.784 120.262 254.784 118.801V105.49H257.413V118.692C257.413 119.477 257.605 120.079 257.989 120.499C258.39 120.919 258.956 121.129 259.687 121.129C260.508 121.129 261.193 120.901 261.741 120.444L262.563 122.334C262.161 122.681 261.677 122.937 261.111 123.101C260.563 123.266 259.988 123.348 259.385 123.348ZM252.319 110.831V108.667H261.577V110.831H252.319ZM281.231 123.402C279.771 123.402 278.419 123.165 277.178 122.69C275.954 122.197 274.886 121.513 273.973 120.636C273.079 119.741 272.376 118.701 271.864 117.514C271.353 116.327 271.097 115.021 271.097 113.597C271.097 112.173 271.353 110.867 271.864 109.681C272.376 108.494 273.088 107.462 274.001 106.586C274.914 105.691 275.982 105.006 277.205 104.532C278.447 104.039 279.798 103.792 281.259 103.792C282.738 103.792 284.098 104.048 285.34 104.559C286.599 105.052 287.668 105.791 288.544 106.777L286.764 108.503C286.033 107.736 285.212 107.17 284.299 106.805C283.386 106.421 282.409 106.23 281.368 106.23C280.291 106.23 279.287 106.412 278.355 106.777C277.442 107.143 276.648 107.654 275.973 108.311C275.297 108.969 274.767 109.754 274.384 110.667C274.019 111.561 273.836 112.538 273.836 113.597C273.836 114.656 274.019 115.642 274.384 116.555C274.767 117.45 275.297 118.226 275.973 118.883C276.648 119.541 277.442 120.052 278.355 120.417C279.287 120.782 280.291 120.965 281.368 120.965C282.409 120.965 283.386 120.782 284.299 120.417C285.212 120.034 286.033 119.449 286.764 118.664L288.544 120.39C287.668 121.376 286.599 122.124 285.34 122.636C284.098 123.147 282.729 123.402 281.231 123.402ZM297.31 123.348C296.068 123.348 294.973 123.119 294.023 122.663C293.092 122.206 292.362 121.513 291.832 120.581C291.321 119.632 291.065 118.445 291.065 117.021V108.667H293.695V116.72C293.695 118.144 294.032 119.212 294.708 119.924C295.402 120.636 296.37 120.992 297.611 120.992C298.524 120.992 299.319 120.81 299.994 120.444C300.67 120.061 301.19 119.513 301.555 118.801C301.92 118.071 302.103 117.194 302.103 116.172V108.667H304.732V123.183H302.24V119.267L302.651 120.308C302.176 121.275 301.464 122.024 300.515 122.553C299.565 123.083 298.497 123.348 297.31 123.348ZM309.327 123.183V102.861H311.956V123.183H309.327ZM321.925 123.348C320.464 123.348 319.332 122.955 318.529 122.17C317.726 121.385 317.324 120.262 317.324 118.801V105.49H319.953V118.692C319.953 119.477 320.145 120.079 320.528 120.499C320.93 120.919 321.496 121.129 322.226 121.129C323.048 121.129 323.733 120.901 324.281 120.444L325.102 122.334C324.701 122.681 324.217 122.937 323.651 123.101C323.103 123.266 322.528 123.348 321.925 123.348ZM314.859 110.831V108.667H324.116V110.831H314.859ZM333.978 123.348C332.736 123.348 331.641 123.119 330.691 122.663C329.76 122.206 329.03 121.513 328.5 120.581C327.989 119.632 327.733 118.445 327.733 117.021V108.667H330.363V116.72C330.363 118.144 330.7 119.212 331.376 119.924C332.07 120.636 333.038 120.992 334.279 120.992C335.192 120.992 335.986 120.81 336.662 120.444C337.338 120.061 337.858 119.513 338.223 118.801C338.588 118.071 338.771 117.194 338.771 116.172V108.667H341.4V123.183H338.908V119.267L339.319 120.308C338.844 121.275 338.132 122.024 337.182 122.553C336.233 123.083 335.165 123.348 333.978 123.348ZM345.995 123.183V108.667H348.515V112.611L348.268 111.625C348.67 110.621 349.346 109.854 350.295 109.325C351.245 108.795 352.413 108.53 353.801 108.53V111.077C353.691 111.059 353.582 111.05 353.472 111.05C353.381 111.05 353.29 111.05 353.198 111.05C351.792 111.05 350.679 111.47 349.857 112.31C349.035 113.15 348.624 114.364 348.624 115.953V123.183H345.995ZM364.572 123.183V120.116L364.435 119.541V114.309C364.435 113.196 364.106 112.337 363.449 111.735C362.81 111.114 361.842 110.804 360.546 110.804C359.687 110.804 358.847 110.95 358.026 111.242C357.204 111.516 356.51 111.89 355.944 112.365L354.849 110.393C355.597 109.79 356.492 109.334 357.533 109.023C358.592 108.695 359.696 108.53 360.847 108.53C362.837 108.53 364.371 109.014 365.448 109.982C366.525 110.95 367.064 112.429 367.064 114.419V123.183H364.572ZM359.806 123.348C358.729 123.348 357.779 123.165 356.958 122.8C356.154 122.435 355.533 121.933 355.095 121.294C354.657 120.636 354.438 119.897 354.438 119.075C354.438 118.29 354.62 117.578 354.986 116.939C355.369 116.3 355.981 115.788 356.821 115.405C357.679 115.021 358.829 114.83 360.272 114.83H364.873V116.72H360.381C359.067 116.72 358.181 116.939 357.724 117.377C357.268 117.815 357.04 118.345 357.04 118.965C357.04 119.678 357.323 120.253 357.889 120.691C358.455 121.111 359.24 121.321 360.244 121.321C361.23 121.321 362.088 121.102 362.819 120.664C363.567 120.225 364.106 119.586 364.435 118.746L364.955 120.554C364.608 121.412 363.997 122.097 363.12 122.608C362.244 123.101 361.139 123.348 359.806 123.348ZM371.519 123.183V102.861H374.148V123.183H371.519ZM386.086 123.183V107.38C386.086 105.956 386.497 104.824 387.318 103.984C388.158 103.126 389.345 102.696 390.879 102.696C391.445 102.696 391.984 102.77 392.495 102.916C393.024 103.043 393.472 103.253 393.837 103.546L393.043 105.545C392.769 105.326 392.458 105.161 392.111 105.052C391.764 104.924 391.399 104.86 391.016 104.86C390.249 104.86 389.665 105.079 389.263 105.518C388.861 105.937 388.66 106.567 388.66 107.407V109.352L388.715 110.557V123.183H386.086ZM383.621 110.831V108.667H392.878V110.831H383.621ZM401.197 123.348C399.645 123.348 398.276 123.028 397.089 122.389C395.92 121.75 395.007 120.874 394.35 119.76C393.711 118.646 393.391 117.368 393.391 115.925C393.391 114.483 393.702 113.205 394.322 112.091C394.962 110.977 395.829 110.11 396.924 109.489C398.038 108.85 399.289 108.53 400.677 108.53C402.083 108.53 403.324 108.841 404.402 109.462C405.479 110.082 406.319 110.959 406.921 112.091C407.542 113.205 407.853 114.51 407.853 116.007C407.853 116.117 407.843 116.245 407.825 116.391C407.825 116.537 407.816 116.674 407.798 116.802H395.445V114.912H406.428L405.36 115.569C405.378 114.638 405.187 113.807 404.785 113.077C404.383 112.346 403.826 111.78 403.114 111.379C402.42 110.959 401.608 110.749 400.677 110.749C399.764 110.749 398.951 110.959 398.239 111.379C397.527 111.78 396.97 112.356 396.568 113.104C396.167 113.835 395.966 114.675 395.966 115.624V116.062C395.966 117.03 396.185 117.897 396.623 118.664C397.08 119.413 397.71 119.997 398.513 120.417C399.316 120.837 400.238 121.047 401.279 121.047C402.137 121.047 402.913 120.901 403.607 120.609C404.319 120.317 404.94 119.878 405.47 119.294L406.921 120.992C406.264 121.759 405.442 122.343 404.456 122.745C403.489 123.147 402.402 123.348 401.197 123.348ZM415.256 123.348C414.051 123.348 412.9 123.183 411.805 122.855C410.728 122.526 409.878 122.124 409.258 121.65L410.353 119.568C410.974 119.988 411.741 120.344 412.654 120.636C413.567 120.928 414.498 121.074 415.448 121.074C416.671 121.074 417.547 120.901 418.077 120.554C418.625 120.207 418.899 119.723 418.899 119.102C418.899 118.646 418.734 118.29 418.406 118.034C418.077 117.779 417.639 117.587 417.091 117.459C416.561 117.331 415.968 117.222 415.311 117.13C414.653 117.021 413.996 116.893 413.339 116.747C412.681 116.583 412.079 116.364 411.531 116.09C410.983 115.797 410.545 115.405 410.216 114.912C409.888 114.401 409.723 113.725 409.723 112.885C409.723 112.009 409.97 111.242 410.463 110.584C410.956 109.927 411.65 109.425 412.544 109.078C413.457 108.713 414.535 108.53 415.776 108.53C416.726 108.53 417.684 108.649 418.652 108.886C419.638 109.105 420.441 109.425 421.062 109.845L419.939 111.927C419.282 111.488 418.597 111.187 417.885 111.023C417.173 110.858 416.461 110.776 415.749 110.776C414.599 110.776 413.74 110.968 413.174 111.351C412.608 111.717 412.325 112.191 412.325 112.776C412.325 113.269 412.49 113.652 412.818 113.926C413.165 114.182 413.603 114.382 414.133 114.528C414.681 114.675 415.283 114.802 415.941 114.912C416.598 115.003 417.255 115.131 417.913 115.295C418.57 115.441 419.163 115.651 419.693 115.925C420.241 116.199 420.679 116.583 421.007 117.076C421.354 117.569 421.528 118.226 421.528 119.048C421.528 119.924 421.272 120.682 420.761 121.321C420.25 121.96 419.528 122.462 418.597 122.827C417.666 123.174 416.552 123.348 415.256 123.348ZM429.388 123.348C427.927 123.348 426.795 122.955 425.992 122.17C425.188 121.385 424.787 120.262 424.787 118.801V105.49H427.416V118.692C427.416 119.477 427.608 120.079 427.991 120.499C428.393 120.919 428.959 121.129 429.689 121.129C430.511 121.129 431.196 120.901 431.743 120.444L432.565 122.334C432.163 122.681 431.679 122.937 431.113 123.101C430.566 123.266 429.99 123.348 429.388 123.348ZM422.322 110.831V108.667H431.579V110.831H422.322Z" fill="#F8F1DE"/>
<path d="M386.258 86.6656V89.1133H375.423V87.0246L380.547 81.531C381.062 80.9581 381.468 80.4541 381.765 80.0189C382.063 79.5765 382.277 79.1813 382.407 78.8332C382.545 78.4778 382.614 78.1406 382.614 77.8215C382.614 77.3428 382.534 76.9331 382.375 76.5922C382.215 76.2441 381.979 75.9758 381.667 75.7872C381.363 75.5987 380.986 75.5044 380.536 75.5044C380.057 75.5044 379.644 75.6204 379.296 75.8525C378.955 76.0846 378.694 76.4073 378.513 76.8207C378.339 77.2341 378.252 77.7018 378.252 78.224H375.108C375.108 77.2812 375.333 76.4182 375.782 75.6349C376.232 74.8444 376.866 74.2171 377.686 73.753C378.505 73.2816 379.477 73.0459 380.601 73.0459C381.711 73.0459 382.647 73.2272 383.408 73.5898C384.177 73.9452 384.757 74.4601 385.149 75.1345C385.547 75.8017 385.747 76.5995 385.747 77.5278C385.747 78.0499 385.663 78.5612 385.497 79.0616C385.33 79.5548 385.091 80.0479 384.779 80.5411C384.474 81.027 384.104 81.5202 383.669 82.0206C383.234 82.521 382.752 83.0395 382.222 83.5762L379.47 86.6656H386.258ZM398.543 79.8014V82.5427C398.543 83.7321 398.416 84.7583 398.162 85.6213C397.908 86.4771 397.542 87.1806 397.063 87.7317C396.592 88.2756 396.03 88.6781 395.377 88.9392C394.725 89.2003 393.999 89.3308 393.202 89.3308C392.563 89.3308 391.969 89.2511 391.418 89.0915C390.866 88.9247 390.37 88.6673 389.927 88.3192C389.492 87.971 389.115 87.5323 388.796 87.0029C388.484 86.4662 388.245 85.828 388.078 85.0883C387.911 84.3485 387.828 83.5 387.828 82.5427V79.8014C387.828 78.612 387.955 77.593 388.208 76.7445C388.469 75.8888 388.836 75.1889 389.307 74.645C389.786 74.1011 390.351 73.7022 391.004 73.4484C391.657 73.1873 392.382 73.0567 393.18 73.0567C393.818 73.0567 394.409 73.1401 394.953 73.307C395.504 73.4665 396.001 73.7167 396.443 74.0576C396.886 74.3984 397.263 74.8372 397.575 75.3738C397.887 75.9033 398.126 76.5378 398.293 77.2776C398.46 78.0101 398.543 78.8513 398.543 79.8014ZM395.399 82.9561V79.3771C395.399 78.8042 395.366 78.3038 395.301 77.8759C395.243 77.448 395.152 77.0854 395.029 76.788C394.906 76.4834 394.754 76.2369 394.572 76.0483C394.391 75.8598 394.184 75.722 393.952 75.6349C393.72 75.5479 393.463 75.5044 393.18 75.5044C392.824 75.5044 392.509 75.5733 392.233 75.7111C391.965 75.8489 391.737 76.0701 391.548 76.3747C391.36 76.672 391.214 77.0709 391.113 77.5713C391.019 78.0644 390.972 78.6664 390.972 79.3771V82.9561C390.972 83.529 391.001 84.0331 391.059 84.4682C391.124 84.9033 391.218 85.2768 391.341 85.5887C391.472 85.8933 391.624 86.1435 391.798 86.3393C391.98 86.5278 392.186 86.6656 392.418 86.7527C392.658 86.8397 392.919 86.8832 393.202 86.8832C393.55 86.8832 393.858 86.8143 394.126 86.6765C394.402 86.5315 394.634 86.3067 394.822 86.0021C395.018 85.6902 395.163 85.2841 395.258 84.7837C395.352 84.2833 395.399 83.6741 395.399 82.9561ZM411.176 86.6656V89.1133H400.341V87.0246L405.465 81.531C405.98 80.9581 406.386 80.4541 406.683 80.0189C406.98 79.5765 407.194 79.1813 407.325 78.8332C407.463 78.4778 407.532 78.1406 407.532 77.8215C407.532 77.3428 407.452 76.9331 407.292 76.5922C407.133 76.2441 406.897 75.9758 406.585 75.7872C406.281 75.5987 405.903 75.5044 405.454 75.5044C404.975 75.5044 404.562 75.6204 404.214 75.8525C403.873 76.0846 403.612 76.4073 403.43 76.8207C403.256 77.2341 403.169 77.7018 403.169 78.224H400.025C400.025 77.2812 400.25 76.4182 400.7 75.6349C401.15 74.8444 401.784 74.2171 402.604 73.753C403.423 73.2816 404.395 73.0459 405.519 73.0459C406.629 73.0459 407.564 73.2272 408.326 73.5898C409.094 73.9452 409.675 74.4601 410.066 75.1345C410.465 75.8017 410.665 76.5995 410.665 77.5278C410.665 78.0499 410.581 78.5612 410.414 79.0616C410.247 79.5548 410.008 80.0479 409.696 80.5411C409.392 81.027 409.022 81.5202 408.587 82.0206C408.152 82.521 407.669 83.0395 407.14 83.5762L404.388 86.6656H411.176ZM415.748 81.9009L413.246 81.3026L414.149 73.2743H423.047V75.809H416.727L416.335 79.3227C416.546 79.1994 416.865 79.0689 417.292 78.9311C417.72 78.786 418.199 78.7135 418.728 78.7135C419.497 78.7135 420.179 78.8332 420.774 79.0725C421.368 79.3118 421.872 79.6599 422.286 80.1168C422.706 80.5737 423.025 81.1322 423.243 81.7921C423.461 82.4521 423.569 83.1991 423.569 84.0331C423.569 84.7365 423.461 85.4074 423.243 86.0456C423.025 86.6765 422.695 87.2422 422.253 87.7426C421.811 88.2358 421.256 88.6238 420.589 88.9066C419.921 89.1894 419.131 89.3308 418.217 89.3308C417.535 89.3308 416.875 89.2293 416.237 89.0263C415.606 88.8232 415.037 88.5222 414.529 88.1233C414.029 87.7245 413.626 87.2422 413.322 86.6765C413.025 86.1036 412.869 85.4509 412.854 84.7184H415.965C416.009 85.168 416.125 85.556 416.313 85.8824C416.509 86.2015 416.767 86.4481 417.086 86.6221C417.405 86.7962 417.778 86.8832 418.206 86.8832C418.605 86.8832 418.946 86.8071 419.229 86.6548C419.512 86.5025 419.74 86.2921 419.914 86.0238C420.088 85.7482 420.215 85.4291 420.295 85.0665C420.382 84.6966 420.425 84.2978 420.425 83.8699C420.425 83.442 420.375 83.054 420.273 82.7059C420.172 82.3578 420.016 82.0568 419.805 81.803C419.595 81.5492 419.327 81.3533 419 81.2156C418.681 81.0778 418.308 81.0089 417.88 81.0089C417.3 81.0089 416.85 81.0995 416.531 81.2808C416.219 81.4621 415.958 81.6688 415.748 81.9009Z" fill="#F8F1DE"/>
<path d="M85.8161 5.15711V22H82.3573V5.15711H85.8161ZM91.9276 5.15711V22H88.4688V5.15711H91.9276ZM101.533 5.15711V22H98.0739V5.15711H101.533ZM106.715 5.15711V7.87557H92.9724V5.15711H106.715ZM125.659 13.1968V19.8715C125.397 20.1877 124.992 20.5309 124.445 20.901C123.897 21.2635 123.191 21.5758 122.328 21.838C121.464 22.1003 120.419 22.2314 119.193 22.2314C118.105 22.2314 117.114 22.054 116.22 21.6992C115.325 21.3368 114.554 20.8085 113.906 20.1144C113.266 19.4204 112.773 18.572 112.426 17.5695C112.078 16.5592 111.905 15.4063 111.905 14.1107V13.058C111.905 11.7624 112.071 10.6095 112.402 9.59919C112.742 8.58893 113.224 7.73676 113.848 7.04268C114.473 6.3486 115.217 5.82034 116.081 5.45788C116.945 5.09541 117.905 4.91418 118.961 4.91418C120.427 4.91418 121.63 5.15325 122.571 5.63139C123.511 6.10182 124.229 6.75734 124.722 7.59794C125.223 8.43083 125.532 9.38711 125.648 10.4668H122.281C122.197 9.8961 122.035 9.39868 121.796 8.97452C121.556 8.55037 121.213 8.21875 120.766 7.97968C120.326 7.74061 119.756 7.62108 119.054 7.62108C118.476 7.62108 117.959 7.74061 117.504 7.97968C117.057 8.21104 116.679 8.55422 116.37 9.00923C116.062 9.46423 115.826 10.0272 115.665 10.6981C115.503 11.3691 115.422 12.148 115.422 13.0349V14.1107C115.422 14.9898 115.506 15.7687 115.676 16.4474C115.846 17.1183 116.096 17.6852 116.428 18.1479C116.767 18.6029 117.184 18.9461 117.677 19.1774C118.171 19.4088 118.745 19.5245 119.401 19.5245C119.949 19.5245 120.404 19.4782 120.766 19.3857C121.136 19.2931 121.433 19.1813 121.657 19.0502C121.888 18.9114 122.065 18.7803 122.189 18.6569V15.6723H119.019V13.1968H125.659ZM134.825 19.0039V9.48351H138.156V22H135.021L134.825 19.0039ZM135.195 16.4358L136.178 16.4127C136.178 17.2456 136.082 18.0206 135.889 18.7378C135.696 19.4473 135.407 20.0643 135.021 20.5887C134.636 21.1054 134.15 21.5103 133.564 21.8033C132.978 22.0887 132.287 22.2314 131.493 22.2314C130.884 22.2314 130.321 22.1465 129.804 21.9769C129.295 21.7995 128.856 21.5257 128.485 21.1555C128.123 20.7777 127.838 20.2957 127.629 19.7096C127.429 19.1157 127.329 18.4024 127.329 17.5695V9.48351H130.66V17.5926C130.66 17.9628 130.703 18.2751 130.788 18.5296C130.88 18.7841 131.007 18.9923 131.169 19.1543C131.331 19.3162 131.52 19.4319 131.736 19.5013C131.96 19.5707 132.207 19.6054 132.476 19.6054C133.163 19.6054 133.703 19.4666 134.096 19.189C134.497 18.9114 134.778 18.5335 134.94 18.0553C135.11 17.5695 135.195 17.0297 135.195 16.4358ZM143.447 18.761L146.049 9.48351H148.166L147.484 13.1274L144.881 22H143.111L143.447 18.761ZM142.128 9.48351L143.99 18.7494L144.164 22H142.082L138.912 9.48351H142.128ZM150.549 18.599L152.365 9.48351H155.593L152.423 22H150.353L150.549 18.599ZM148.455 9.48351L151.047 18.6916L151.405 22H149.624L147.021 13.139L146.362 9.48351H148.455ZM163.197 19.1774V13.6017C163.197 13.2007 163.131 12.8575 163 12.5721C162.869 12.2791 162.665 12.0516 162.387 11.8896C162.117 11.7277 161.766 11.6467 161.334 11.6467C160.964 11.6467 160.644 11.7123 160.374 11.8434C160.104 11.9668 159.896 12.148 159.749 12.3871C159.603 12.6184 159.53 12.8922 159.53 13.2084H156.198C156.198 12.6763 156.321 12.1711 156.568 11.693C156.815 11.2148 157.174 10.7945 157.644 10.4321C158.114 10.0619 158.674 9.77271 159.321 9.56449C159.977 9.35626 160.71 9.25215 161.519 9.25215C162.491 9.25215 163.355 9.4141 164.111 9.73801C164.866 10.0619 165.46 10.5478 165.892 11.1956C166.332 11.8434 166.551 12.6531 166.551 13.6248V18.9808C166.551 19.6671 166.594 20.2301 166.679 20.6697C166.763 21.1016 166.887 21.4794 167.049 21.8033V22H163.683C163.521 21.6607 163.397 21.2365 163.312 20.7275C163.235 20.2108 163.197 19.6941 163.197 19.1774ZM163.636 14.3767L163.659 16.2623H161.797C161.357 16.2623 160.976 16.3124 160.652 16.4127C160.328 16.513 160.062 16.6556 159.854 16.8407C159.645 17.0181 159.491 17.2263 159.391 17.4654C159.298 17.7044 159.252 17.9667 159.252 18.252C159.252 18.5373 159.318 18.7957 159.449 19.027C159.58 19.2507 159.769 19.4281 160.015 19.5592C160.262 19.6826 160.551 19.7443 160.883 19.7443C161.384 19.7443 161.82 19.644 162.19 19.4435C162.56 19.243 162.846 18.9962 163.046 18.7031C163.254 18.4101 163.362 18.1325 163.37 17.8703L164.249 19.2815C164.126 19.5977 163.956 19.9255 163.74 20.2648C163.532 20.6041 163.266 20.9242 162.942 21.2249C162.618 21.518 162.229 21.7609 161.774 21.9537C161.319 22.1388 160.779 22.2314 160.154 22.2314C159.36 22.2314 158.639 22.0733 157.991 21.7571C157.351 21.4332 156.842 20.9897 156.464 20.4268C156.094 19.8561 155.909 19.2083 155.909 18.4834C155.909 17.8278 156.032 17.2456 156.279 16.7366C156.526 16.2276 156.888 15.7996 157.366 15.4526C157.852 15.0978 158.458 14.8317 159.183 14.6544C159.908 14.4693 160.748 14.3767 161.704 14.3767H163.636ZM171.541 4.23168V22H168.209V4.23168H171.541ZM171.067 15.3022H170.153C170.16 14.4307 170.276 13.6287 170.5 12.896C170.723 12.1557 171.043 11.5156 171.46 10.9758C171.876 10.4282 172.374 10.0041 172.952 9.7033C173.538 9.40254 174.186 9.25215 174.896 9.25215C175.512 9.25215 176.072 9.34084 176.573 9.51821C177.082 9.68788 177.518 9.96551 177.88 10.3511C178.25 10.729 178.536 11.2264 178.736 11.8434C178.937 12.4603 179.037 13.2084 179.037 14.0875V22H175.682V14.0644C175.682 13.5091 175.601 13.0734 175.439 12.7572C175.285 12.4333 175.057 12.2058 174.757 12.0747C174.464 11.9359 174.101 11.8665 173.669 11.8665C173.191 11.8665 172.782 11.9552 172.443 12.1326C172.112 12.3099 171.845 12.5567 171.645 12.8729C171.444 13.1814 171.298 13.5439 171.205 13.9603C171.113 14.3767 171.067 14.824 171.067 15.3022ZM187.497 19.1774V13.6017C187.497 13.2007 187.431 12.8575 187.3 12.5721C187.169 12.2791 186.965 12.0516 186.687 11.8896C186.417 11.7277 186.066 11.6467 185.634 11.6467C185.264 11.6467 184.944 11.7123 184.674 11.8434C184.404 11.9668 184.196 12.148 184.049 12.3871C183.903 12.6184 183.83 12.8922 183.83 13.2084H180.498C180.498 12.6763 180.621 12.1711 180.868 11.693C181.115 11.2148 181.474 10.7945 181.944 10.4321C182.415 10.0619 182.974 9.77271 183.621 9.56449C184.277 9.35626 185.01 9.25215 185.819 9.25215C186.791 9.25215 187.655 9.4141 188.411 9.73801C189.166 10.0619 189.76 10.5478 190.192 11.1956C190.632 11.8434 190.851 12.6531 190.851 13.6248V18.9808C190.851 19.6671 190.894 20.2301 190.979 20.6697C191.063 21.1016 191.187 21.4794 191.349 21.8033V22H187.983C187.821 21.6607 187.697 21.2365 187.612 20.7275C187.535 20.2108 187.497 19.6941 187.497 19.1774ZM187.936 14.3767L187.959 16.2623H186.097C185.657 16.2623 185.276 16.3124 184.952 16.4127C184.628 16.513 184.362 16.6556 184.154 16.8407C183.945 17.0181 183.791 17.2263 183.691 17.4654C183.598 17.7044 183.552 17.9667 183.552 18.252C183.552 18.5373 183.618 18.7957 183.749 19.027C183.88 19.2507 184.069 19.4281 184.316 19.5592C184.562 19.6826 184.851 19.7443 185.183 19.7443C185.684 19.7443 186.12 19.644 186.49 19.4435C186.86 19.243 187.146 18.9962 187.346 18.7031C187.555 18.4101 187.662 18.1325 187.67 17.8703L188.549 19.2815C188.426 19.5977 188.256 19.9255 188.04 20.2648C187.832 20.6041 187.566 20.9242 187.242 21.2249C186.918 21.518 186.529 21.7609 186.074 21.9537C185.619 22.1388 185.079 22.2314 184.454 22.2314C183.66 22.2314 182.939 22.0733 182.291 21.7571C181.651 21.4332 181.142 20.9897 180.764 20.4268C180.394 19.8561 180.209 19.2083 180.209 18.4834C180.209 17.8278 180.332 17.2456 180.579 16.7366C180.826 16.2276 181.188 15.7996 181.666 15.4526C182.152 15.0978 182.758 14.8317 183.483 14.6544C184.208 14.4693 185.048 14.3767 186.004 14.3767H187.936ZM198.721 9.48351V11.8434H191.433V9.48351H198.721ZM193.238 6.39488H196.57V18.2289C196.57 18.5913 196.616 18.8689 196.708 19.0617C196.809 19.2545 196.955 19.3895 197.148 19.4666C197.341 19.536 197.584 19.5707 197.877 19.5707C198.085 19.5707 198.27 19.563 198.432 19.5476C198.602 19.5245 198.744 19.5013 198.86 19.4782L198.872 21.9306C198.586 22.0231 198.278 22.0964 197.946 22.1504C197.615 22.2044 197.248 22.2314 196.847 22.2314C196.115 22.2314 195.475 22.1118 194.927 21.8728C194.387 21.626 193.971 21.2327 193.678 20.6928C193.385 20.153 193.238 19.4435 193.238 18.5643V6.39488ZM203.306 9.48351V22H199.963V9.48351H203.306ZM199.755 6.22136C199.755 5.73551 199.924 5.33448 200.264 5.01829C200.603 4.7021 201.058 4.54401 201.629 4.54401C202.192 4.54401 202.643 4.7021 202.982 5.01829C203.329 5.33448 203.503 5.73551 203.503 6.22136C203.503 6.70721 203.329 7.10823 202.982 7.42442C202.643 7.74061 202.192 7.89871 201.629 7.89871C201.058 7.89871 200.603 7.74061 200.264 7.42442C199.924 7.10823 199.755 6.70721 199.755 6.22136ZM208.272 4.23168V5.99C208.272 6.49128 208.176 7.00798 207.983 7.5401C207.798 8.07222 207.547 8.57736 207.231 9.0555C206.915 9.52593 206.568 9.92695 206.19 10.2586L204.628 9.35626C204.914 8.90126 205.157 8.40769 205.357 7.87557C205.558 7.33573 205.658 6.71107 205.658 6.00157V4.23168H208.272ZM214.361 18.5412C214.361 18.3021 214.291 18.0862 214.152 17.8934C214.014 17.7006 213.755 17.5232 213.377 17.3613C213.007 17.1916 212.471 17.0374 211.769 16.8985C211.137 16.7597 210.547 16.5862 210 16.378C209.46 16.1621 208.989 15.9037 208.588 15.6029C208.195 15.3022 207.886 14.9474 207.663 14.5387C207.439 14.1222 207.327 13.648 207.327 13.1158C207.327 12.5914 207.439 12.0979 207.663 11.6351C207.894 11.1724 208.222 10.7637 208.646 10.4089C209.078 10.0465 209.602 9.765 210.219 9.56449C210.844 9.35626 211.546 9.25215 212.325 9.25215C213.412 9.25215 214.345 9.42567 215.124 9.77271C215.911 10.1197 216.512 10.5979 216.929 11.2071C217.353 11.8087 217.565 12.495 217.565 13.2662H214.233C214.233 12.9423 214.164 12.6531 214.025 12.3986C213.894 12.1364 213.686 11.9321 213.401 11.7855C213.123 11.6313 212.76 11.5542 212.313 11.5542C211.943 11.5542 211.623 11.6197 211.353 11.7508C211.083 11.8742 210.875 12.0439 210.728 12.2598C210.589 12.468 210.52 12.6994 210.52 12.9539C210.52 13.1467 210.559 13.3202 210.636 13.4744C210.721 13.621 210.856 13.7559 211.041 13.8793C211.226 14.0027 211.465 14.1184 211.758 14.2264C212.059 14.3266 212.429 14.4192 212.868 14.504C213.771 14.6891 214.577 14.932 215.286 15.2328C215.996 15.5258 216.559 15.9268 216.975 16.4358C217.391 16.9371 217.6 17.5965 217.6 18.4139C217.6 18.9692 217.476 19.4782 217.229 19.9409C216.983 20.4036 216.628 20.8085 216.165 21.1555C215.703 21.4949 215.147 21.7609 214.499 21.9537C213.859 22.1388 213.138 22.2314 212.336 22.2314C211.172 22.2314 210.185 22.0231 209.375 21.6067C208.573 21.1902 207.964 20.662 207.547 20.0219C207.138 19.3741 206.934 18.7109 206.934 18.0322H210.092C210.107 18.4872 210.223 18.8535 210.439 19.1312C210.663 19.4088 210.944 19.6093 211.284 19.7327C211.631 19.8561 212.005 19.9178 212.406 19.9178C212.838 19.9178 213.196 19.8599 213.481 19.7443C213.767 19.6209 213.983 19.4589 214.129 19.2584C214.284 19.0502 214.361 18.8111 214.361 18.5412Z" fill="#F8F1DE"/>
<path d="M39.3473 89.1613C39.1207 88.9283 39.3473 88.4623 39.1207 88.2293C39.1207 88.4623 38.894 88.6953 38.894 88.9283C38.894 89.1613 38.894 89.3943 38.894 89.6273C38.894 90.0933 38.894 90.0933 38.4407 90.0933C38.2141 90.0933 37.9874 90.0933 37.9874 90.0933C37.5341 90.0933 37.0808 90.0933 36.6275 90.3263C36.1742 90.3263 35.7209 90.5593 35.4942 90.5593C35.0409 90.5593 34.5876 90.5593 34.1343 90.5593C33.4543 90.5593 33.001 90.5593 32.3211 90.5593C31.4144 90.5593 30.5078 90.5593 29.6012 90.5593C29.6012 90.5593 29.6012 90.5593 29.6012 90.7923C29.6012 90.7923 29.8279 91.0253 29.6012 91.0253C29.6012 91.0253 29.3746 91.0253 29.3746 90.7923C29.1479 90.7923 29.3746 90.5593 29.3746 90.5593C28.6946 90.5593 27.788 90.5593 27.108 90.5593C26.428 90.5593 25.7481 90.5593 25.2948 90.5593C24.8415 90.5593 24.3882 90.5593 23.9349 90.5593H23.7082C23.4815 90.7923 23.2549 90.7923 23.0282 90.7923C21.6683 90.7923 20.3084 90.7923 19.1751 90.7923C18.2685 90.7923 17.5885 90.7923 16.6819 90.7923C16.2286 90.7923 15.7753 90.7923 15.5486 90.7923H15.322C14.8687 90.5593 14.4154 90.5593 14.1887 91.0253C14.1887 91.0253 13.9621 91.2583 13.9621 91.0253C13.5088 91.0253 13.0555 91.0253 12.6021 91.0253C12.3755 91.0253 11.9222 91.0253 11.6955 91.0253C11.6955 91.0253 11.4689 91.0253 11.4689 90.7923C11.2422 90.5593 10.7889 90.5593 10.3356 90.5593C10.3356 90.7923 10.5623 90.7923 10.5623 90.7923C10.5623 91.0253 10.3356 90.7923 10.109 90.7923C8.74903 90.7923 7.16245 90.7923 5.80252 90.7923C5.34921 90.7923 4.89591 90.7923 4.21594 90.7923C3.53598 90.7923 3.08267 90.7923 2.40271 90.5593C2.17606 90.5593 2.17606 90.5593 2.17606 90.3263C1.9494 90.0933 1.72275 89.6273 1.49609 89.3943C1.49609 89.3943 1.49609 89.1613 1.49609 88.9283C1.49609 84.7342 1.49609 80.3072 1.49609 76.1131C1.49609 72.3851 1.49609 68.4241 1.49609 64.696C1.49609 63.764 1.49609 63.065 1.49609 62.133C1.49609 61.667 1.49609 61.201 1.49609 60.735C1.49609 60.502 1.49609 60.036 1.49609 59.803C1.49609 59.337 1.49609 59.104 1.49609 58.638V58.405C1.49609 57.706 1.49609 57.007 1.49609 56.308C1.49609 56.075 1.49609 55.609 1.49609 55.376V55.143C1.72275 54.91 1.72275 54.91 1.72275 54.677V54.4439C1.72275 53.9779 1.72275 53.2789 1.49609 52.8129C1.49609 52.5799 1.49609 52.3469 1.49609 52.1139C1.49609 51.4149 1.49609 50.9489 1.49609 50.2499V50.0169C1.9494 49.5509 2.17606 49.3179 2.62936 48.8519C2.85602 48.8519 2.85602 48.6189 3.08267 48.6189C4.21594 48.6189 5.34921 48.6189 6.48248 48.6189C10.109 48.6189 13.5088 48.6189 17.1352 48.6189C18.4952 48.6189 19.8551 48.6189 21.215 48.6189C22.1216 48.6189 23.0282 48.6189 23.9349 48.6189C24.6148 48.6189 25.2948 48.6189 25.9747 48.6189C26.6547 48.6189 27.108 48.6189 27.788 48.6189C28.6946 48.6189 29.6012 48.6189 30.5078 48.6189C31.8677 48.6189 33.2277 48.6189 34.8143 48.6189C35.2676 48.6189 35.2676 48.6189 35.2676 49.0849C35.2676 49.5509 35.2676 50.0169 35.0409 50.4829C35.0409 50.9489 34.8143 51.6479 34.8143 52.1139C34.8143 52.5799 34.5876 53.2789 34.5876 53.7449C34.3609 54.444 34.3609 54.91 34.1343 55.609C33.9076 56.541 33.681 57.473 33.4543 58.405C33.2277 59.803 32.7744 60.968 32.3211 62.133C31.8677 63.531 31.1878 64.696 30.2812 65.861C29.8279 66.5601 29.1479 67.4921 28.6946 68.1911C27.788 69.3561 26.8814 70.2881 25.7481 71.4531C25.2948 71.9191 24.6148 72.6181 24.1615 73.0841C23.7082 73.5501 23.0282 74.2491 22.5749 74.7151C22.1216 75.1811 21.6683 75.6471 20.9883 76.1131C20.0817 76.8121 19.4018 77.7442 18.4952 78.6762C18.2685 78.9092 18.0418 78.9092 18.0418 78.6762C17.8152 78.4432 17.5885 78.4432 17.3619 78.6762C16.9086 79.1422 16.4553 79.8412 16.2286 80.3072C15.5486 81.2392 15.0953 82.4042 14.642 83.3362C14.1887 84.0352 13.9621 84.9672 13.9621 85.6662C13.9621 86.3652 13.9621 87.2972 14.1887 87.9962C14.4154 88.4622 14.642 88.6953 15.0953 89.1613C15.322 89.1613 15.322 89.1613 15.5486 88.9283C16.002 88.2293 16.2286 87.5302 16.6819 87.0642C17.3619 85.6662 18.0418 84.2682 18.9485 82.8702C18.4952 82.6372 19.1751 81.9382 19.6284 81.2392C20.0817 80.5402 20.7617 80.0742 21.215 79.3752C21.895 78.6762 22.5749 77.9772 23.2549 77.2782C23.7082 76.5791 24.3882 76.1131 25.0681 75.6471C26.2014 74.4821 27.5613 73.5501 28.9212 72.6181C29.6012 72.1521 30.5078 71.4531 31.1878 70.9871C31.4144 70.9871 31.4144 70.9871 31.4144 71.2201C31.6411 72.1521 31.6411 73.0841 31.4144 74.0161C31.1878 75.4141 30.7345 76.8121 30.5078 78.2102C30.2812 79.1422 30.0545 80.0742 29.8279 81.0062C29.8279 81.2392 29.8279 81.4722 29.8279 81.9382C29.8279 82.6372 29.6012 83.1032 29.3746 83.5692C29.1479 83.8022 29.1479 84.0352 28.9212 84.2682C28.6946 84.7342 28.9212 84.9672 29.1479 85.2002C29.6012 85.6662 30.0545 86.1322 30.5078 86.3652C31.6411 87.0642 32.5477 87.7632 33.681 88.4622C34.3609 88.6953 35.0409 89.1613 35.7209 89.1613C36.4008 89.3943 37.0808 89.3943 37.7608 89.1613C37.7608 89.1613 37.9874 89.1613 37.9874 88.9283C37.9874 88.6953 37.7608 88.6953 37.7608 88.4622C37.3074 87.9962 36.6275 87.5302 35.9475 87.2972C35.2676 86.8312 34.5876 86.3652 34.1343 85.8992C33.681 85.4332 33.2277 84.7342 33.001 84.0352C32.7744 83.5692 32.7744 83.3362 32.7744 82.8702C32.7744 81.2392 33.001 79.8412 33.4543 78.4432C33.681 77.2782 34.1343 75.8801 34.5876 74.7151C35.0409 73.7831 35.4942 72.8511 35.9475 71.9191C36.8541 70.0551 37.5341 68.4241 38.4407 66.5601C38.6674 66.0941 38.894 65.8611 38.894 65.395L39.1207 65.162V65.395C39.1207 67.7251 39.1207 70.2881 39.1207 72.6181C39.1207 74.9481 39.1207 77.2782 39.1207 79.6082C39.1207 80.3072 39.1207 81.2392 39.1207 81.9382C39.1207 82.1712 39.1207 82.6372 39.1207 82.8702C39.1207 83.3362 39.1207 83.8022 39.1207 84.0352C39.1207 84.9672 39.1207 85.8992 39.1207 86.8312C39.3473 87.9962 39.574 88.4622 39.3473 89.1613ZM1.9494 85.8992C1.72275 85.4332 1.72275 85.6662 1.9494 85.8992C1.72275 85.6662 1.49609 85.8992 1.49609 85.8992C1.49609 85.8992 1.49609 85.8992 1.9494 85.8992C1.72275 85.8992 1.72275 85.8992 1.9494 85.8992Z" fill="#F8F1DE"/>
<path d="M57.9316 43.2597C59.2915 43.2597 60.1981 43.2597 61.3314 43.2597H61.558C61.3314 43.2597 61.3314 43.2597 61.1047 43.2597C60.6514 43.2597 59.9714 43.2597 59.5181 43.2597C58.6115 43.2597 57.9316 43.2597 57.0249 43.2597C56.5716 43.2597 56.1183 43.2597 55.4384 43.2597C55.2117 43.2597 54.9851 43.2597 54.7584 43.0267C54.7584 42.7937 54.5317 42.7937 54.3051 42.7937C53.3985 42.7937 52.7185 42.7937 51.8119 42.7937C52.0385 42.7937 52.4919 42.7937 52.7185 43.0267C52.0385 43.4927 49.772 43.4927 49.5454 43.0267C49.772 43.0267 49.9987 43.0267 50.2253 42.7937C49.772 42.5607 48.8654 42.5607 48.6387 42.7937L48.8654 43.0267C49.092 43.2597 48.8654 43.2597 48.8654 43.2597C48.4121 43.2597 47.7321 43.2597 47.2788 43.2597C47.0522 43.2597 47.0522 43.0267 47.0522 43.0267C47.0522 42.7937 47.0522 42.3277 47.0522 42.0947C47.0522 41.6287 47.2788 41.1627 47.2788 40.6967C47.2788 40.2307 47.5055 39.7647 47.5055 39.2987C47.5055 38.8326 47.5055 38.3666 47.7321 37.9006C47.7321 37.4346 47.9588 36.7356 47.9588 36.2696C47.9588 36.0366 47.9588 35.8036 47.9588 35.5706C47.9588 35.1046 47.9588 34.6386 47.9588 34.1726C47.9588 32.7746 47.9588 31.1436 47.9588 29.7456C47.9588 29.0466 47.9588 28.3476 47.9588 27.6485C47.9588 26.9495 47.9588 26.2505 47.9588 25.5515C47.9588 24.6195 48.1854 23.6875 48.6387 22.7555C49.092 21.5905 49.772 20.6585 50.2253 19.7265C50.9053 18.5615 51.3586 17.3965 52.0385 16.2314C52.7185 15.0664 53.1718 13.9014 53.6251 12.5034C54.3051 11.1054 54.7584 9.70738 55.4384 8.30937C55.8917 7.14436 56.345 5.97935 56.5716 4.81434C56.7983 4.11533 57.0249 3.41633 57.0249 2.71732C56.7983 2.71732 56.7983 2.95032 56.5716 3.18332C56.345 4.34833 55.8917 5.51334 55.2117 6.44535C54.9851 6.91136 54.3051 6.91136 53.8518 6.91136C53.8518 6.91136 53.6251 6.91136 53.3985 6.91136C53.3985 6.91136 53.1718 6.91136 53.1718 7.14436V7.37736C53.1718 8.77537 52.9452 9.94039 52.4919 11.1054C52.2652 11.8044 51.8119 12.5034 51.5852 13.4354C50.9053 14.8334 50.2253 15.9984 49.3187 17.3965C48.8654 18.0955 48.4121 18.5615 47.9588 19.2605C47.7321 19.4935 47.5055 19.9595 47.0522 20.1925C46.3722 20.8915 45.4656 21.5905 44.1057 22.0565C44.1057 22.0565 43.879 22.0565 43.6523 22.0565C43.6523 21.8235 43.6523 21.8235 43.6523 21.5905C43.6523 15.9984 43.6523 10.4064 43.6523 4.58134C43.6523 4.11533 43.6523 3.64933 43.6523 3.18332C43.6523 2.71732 43.6523 2.25131 44.1057 2.01831C44.3323 1.78531 44.559 1.55231 44.7856 1.31931C44.559 1.0863 44.7856 1.0863 45.0123 1.0863C46.3722 1.0863 47.7321 1.0863 49.092 1.0863C52.0385 1.0863 54.9851 1.0863 57.9316 1.0863C61.558 1.0863 65.4111 1.0863 69.0376 1.0863C71.0775 1.0863 73.1174 1.0863 75.1573 1.0863C75.3839 1.0863 75.8372 1.0863 76.0639 1.55231C76.2905 1.78531 76.7438 2.25131 76.9705 2.48432C77.1972 2.71732 77.1972 2.71732 76.7439 2.95032C76.5172 2.95032 76.5172 2.95032 76.5172 3.18332C76.5172 3.88233 76.5172 4.34833 76.5172 5.04734C76.5172 5.74635 76.5172 6.44535 76.5172 7.14436C76.5172 7.61036 76.2905 8.30937 76.2905 8.77537C76.2905 9.00838 76.2905 9.47438 76.2905 9.70738C76.2905 11.3384 76.2905 12.9694 76.2905 14.8334C76.2905 19.2605 76.2905 23.4545 76.2905 27.8815C76.2905 29.2796 76.2905 30.6776 76.2905 32.0756C76.2905 32.7746 76.5172 33.4736 76.5172 34.1726C76.5172 34.4056 76.5172 34.8716 76.5172 35.1046C76.2905 35.8036 76.2905 36.5026 76.2905 37.2016C76.2905 37.9006 76.2905 38.8326 76.2905 39.5317C76.2905 39.9977 76.2905 40.6967 76.0639 41.1627C75.8372 41.1627 75.8372 41.1627 75.8372 41.3957C75.8372 41.8617 75.8372 42.3277 75.8372 42.7937C75.8372 43.0267 75.8372 43.0267 75.6106 43.0267C75.3839 43.0267 74.9306 43.0267 74.704 43.0267C74.2507 43.0267 74.024 43.0267 73.5707 43.0267C72.6641 43.0267 71.9841 43.0267 71.0775 43.0267C69.4909 43.0267 67.6777 43.0267 66.0911 43.0267C64.7312 43.0267 63.5979 43.0267 62.238 43.0267C61.7847 43.0267 61.1047 43.0267 60.6514 43.0267C59.9714 43.0267 59.5181 43.0267 58.8382 43.0267C58.6115 43.0267 58.3849 43.0267 57.9316 43.2597Z" fill="#F8F1DE"/>
<path d="M72.6648 84.5009C72.6648 84.9669 72.6648 85.4329 72.6648 85.8989C72.6648 86.3649 72.6648 86.3649 72.2115 86.3649C71.5315 86.3649 71.0782 86.3649 70.3983 86.3649C69.265 86.3649 68.3584 86.3649 67.2251 86.3649C66.5451 86.3649 65.6385 86.3649 64.9586 86.3649C64.7319 86.3649 64.5053 86.3649 64.2786 86.5979C64.0519 86.8309 63.8253 86.8309 63.8253 86.5979C63.8253 86.5979 63.8253 86.3649 64.0519 86.1319C63.5986 86.1319 63.1453 86.1319 62.9187 86.1319C60.6521 86.1319 58.6122 86.1319 56.3457 86.1319C55.8924 86.1319 55.6657 86.1319 55.2124 86.3649C55.4391 86.3649 55.4391 86.5979 55.6657 86.5979C56.799 86.5979 57.9323 86.5979 58.8389 86.5979H59.0656C59.0656 86.8309 59.0656 86.8309 58.8389 86.8309C58.3856 86.8309 58.1589 87.0639 57.7056 87.0639C56.5724 87.0639 55.4391 87.0639 54.3058 87.0639C53.8525 87.0639 53.1725 87.0639 52.7192 87.0639C52.4926 87.0639 52.4926 87.0639 52.2659 86.8309C52.2659 86.5979 52.0393 86.5979 51.8126 86.5979C51.1327 86.5979 50.4527 86.5979 49.5461 86.5979C49.7727 86.5979 49.9994 86.5979 50.226 86.8309H50.4527C49.9994 87.2969 49.7727 87.2969 49.5461 87.2969C48.8661 87.2969 48.4128 87.2969 47.7329 87.2969C47.5062 87.2969 47.5062 87.2969 47.2795 87.0639C47.2795 87.0639 47.5062 87.0639 47.7329 86.8309C47.5062 86.8309 47.2795 86.8309 47.2795 86.8309C47.0529 86.8309 47.0529 87.0639 47.0529 87.0639C47.0529 87.2969 47.0529 87.2969 46.8262 87.2969C46.3729 87.2969 45.9196 87.5299 45.2397 87.5299C44.7863 87.5299 44.1064 87.5299 43.6531 87.5299C43.1998 87.5299 42.9731 87.2969 42.7465 87.0639C42.5198 86.8309 42.2932 86.3649 42.0665 86.1319C41.8398 86.1319 41.8398 85.8989 41.8398 85.6659C41.8398 77.2778 41.8398 68.8897 41.8398 60.7347C41.8398 60.0357 42.0665 59.5697 42.2932 59.1037C42.9731 56.7736 43.8797 54.6766 44.5597 52.3466C45.013 50.4826 45.693 48.8516 46.1463 46.9876C46.1463 46.7546 46.3729 46.5215 46.3729 46.2885C46.3729 46.0555 46.8262 46.0555 47.0529 46.0555C48.1862 46.0555 49.0928 46.0555 50.226 46.0555C50.906 46.0555 51.3593 46.0555 52.0393 46.0555C58.8389 46.0555 65.6385 46.0555 72.4382 46.0555C72.6648 46.0555 72.8915 46.0555 73.1181 46.2885C73.3448 46.5215 73.5714 46.7546 73.5714 46.9876C73.7981 47.4536 74.0247 47.9196 73.7981 48.3856C73.5714 48.6186 73.5714 49.0846 73.7981 49.3176C73.7981 49.5506 73.7981 49.7836 73.7981 50.0166C73.7981 50.9486 73.7981 51.6476 73.7981 52.5796C73.7981 53.5116 73.7981 54.2106 73.7981 55.1426C73.7981 55.8416 73.7981 56.5406 73.7981 57.2396C73.7981 59.1037 73.7981 60.9677 73.7981 62.8317C73.7981 64.9287 73.7981 67.0257 73.7981 69.1228C73.7981 69.8218 73.7981 70.5208 73.7981 71.2198C73.7981 71.9188 73.7981 72.6178 73.7981 73.3168C73.7981 73.7828 73.7981 74.0158 73.7981 74.4818C73.7981 75.4138 73.7981 76.3458 74.0247 77.0448C74.0247 77.5108 74.0247 77.7438 74.0247 78.2098C74.0247 78.6758 74.0247 79.1418 73.7981 79.6078C73.7981 79.8408 73.7981 79.8409 73.7981 80.0739C73.7981 80.7729 73.7981 81.7049 73.7981 82.4039C73.7981 83.1029 73.7981 83.5689 73.7981 84.2679C73.7981 84.5009 73.7981 84.5009 73.7981 84.7339C72.8915 84.7339 72.8915 84.7339 72.6648 84.5009Z" fill="#F8F1DE"/>
<path d="M13.2819 9.00849C13.5085 9.7075 13.9618 9.9405 14.4151 10.4065C14.8684 11.1055 15.3217 11.5715 15.7751 12.2705C16.2284 12.9695 16.6817 13.6685 17.3616 14.1345C18.0416 14.8335 18.4949 15.7656 19.1749 16.4646C19.8548 17.3966 20.3081 18.3286 21.2148 19.0276C21.6681 20.1926 22.5747 20.6586 23.708 20.8916C24.6146 21.1246 25.2945 21.3576 26.2011 21.5906C27.1078 21.8236 27.7877 22.0566 28.4677 22.5226C29.3743 22.9886 30.0543 23.4546 30.7342 24.1536C31.1875 24.6196 31.8675 25.0856 32.3208 25.5516C33.0008 26.2506 33.9074 26.9497 34.5874 27.6487C35.494 28.5807 36.4006 29.7457 37.3072 30.9107C37.7605 31.6097 38.2138 32.5417 38.4405 33.4737C38.4405 33.7067 38.4405 34.1727 38.4405 34.6387C38.4405 35.5707 38.4405 36.2697 38.2138 37.2017C37.9872 37.9008 37.5339 38.5998 37.3072 39.0658C37.0805 39.7648 36.6272 40.2308 36.4006 40.9298C35.9473 41.6288 35.7206 42.3278 35.7206 43.2598C35.494 43.9588 35.494 44.6578 35.2673 45.3568C35.2673 45.8228 35.2673 46.2888 35.0407 46.5218C35.0407 46.7548 35.0407 46.7548 34.814 46.7548C33.6807 46.7548 32.7741 46.7548 31.6408 46.7548C30.0543 46.7548 28.4677 46.7548 26.8811 46.7548C25.7478 46.7548 24.6146 46.7548 23.4813 46.7548H23.708C24.3879 46.7548 25.0679 46.7548 25.5212 46.7548C25.5212 46.7548 25.9745 46.7548 25.7478 46.9878C25.7478 46.9878 25.5212 46.9878 25.2945 46.9878C24.8412 46.9878 24.3879 46.9878 23.708 46.9878C22.348 46.9878 20.9881 46.9878 19.4015 46.9878C19.1749 46.9878 18.7216 46.9878 18.4949 46.7548C18.4949 46.7548 18.2683 46.5218 18.2683 46.7548V46.9878C18.2683 46.9878 18.2683 46.9878 18.2683 47.2208C18.0416 47.4538 18.0416 47.4538 17.8149 47.4538C17.8149 47.4538 17.5883 47.4538 17.5883 47.2208C17.5883 46.7548 17.135 46.7548 16.9083 46.7548C15.7751 46.5218 14.4151 46.7548 13.2819 46.7548C13.0552 46.7548 12.8286 46.7548 12.3752 46.7548C12.6019 46.7548 12.8286 46.9878 12.8286 46.9878C12.8286 46.9878 13.0552 46.9878 13.0552 47.2208C13.0552 47.2208 13.0552 47.2208 12.8286 47.2208C12.6019 47.2208 12.6019 47.2208 12.3752 47.2208C11.0153 47.4538 9.88205 47.4538 8.52213 47.4538C8.06882 47.4538 7.84216 47.4538 7.61551 46.9878L7.38886 46.7548C6.93555 46.5218 6.93555 46.0558 6.93555 45.5898C6.93555 39.0658 6.93555 32.7747 6.93555 26.2506C6.93555 19.7266 6.93555 12.9695 6.93555 6.44547C6.93555 5.97946 6.93555 5.51346 7.38886 5.28046C7.84216 5.28046 8.06882 5.04746 8.29547 4.81445H8.52213C9.42874 4.81445 10.562 4.81445 11.4686 4.81445C16.2284 4.81445 21.2148 4.81445 25.9745 4.81445C26.4278 4.81445 27.1078 4.81445 27.5611 4.81445C28.921 4.81445 30.2809 4.81445 31.6408 4.81445C32.7741 4.81445 34.134 4.81445 35.2673 4.81445C36.6272 4.81445 37.9872 4.81445 39.1204 4.81445C39.3471 4.81445 39.5737 4.81445 39.5737 5.04746C39.8004 5.28046 40.2537 5.74646 40.4804 5.97946C40.707 6.21247 40.707 6.21247 40.707 6.44547C40.707 8.30948 40.707 10.1735 40.707 12.0375C40.707 14.6005 40.707 17.1636 40.707 19.7266C40.707 20.1926 40.707 20.6586 40.4804 21.1246C40.4804 21.1246 40.4804 21.3576 40.2537 21.3576C40.2537 21.3576 40.0271 21.3576 40.0271 21.1246C39.8004 20.8916 39.8004 20.6586 39.8004 20.4256C39.5737 19.7266 39.5737 18.7946 39.5737 18.0956C39.5737 17.1636 39.8004 16.4646 39.8004 15.5326C39.8004 14.6005 40.0271 13.9015 39.5737 12.9695C39.3471 12.5035 39.1204 12.2705 38.6671 12.0375C38.2138 11.8045 37.7605 11.5715 37.0805 11.3385C35.9473 11.1055 34.814 11.3385 33.9074 12.5035C33.4541 13.2025 33.0008 14.1345 32.7741 15.0665C32.5475 15.9986 32.5475 16.9306 33.0008 17.8626C33.2274 18.3286 33.4541 18.7946 33.9074 19.2606C34.134 19.4936 34.5873 19.7266 34.814 20.1926C35.0407 20.4256 35.0407 20.4256 34.814 20.6586C34.814 20.6586 34.814 20.6586 34.5874 20.6586C34.134 20.6586 33.4541 20.6586 33.0008 20.6586C31.6408 20.6586 30.2809 20.4256 29.1476 19.9596C28.0144 19.4936 26.8811 19.0276 25.7478 18.5616C24.6146 18.0956 23.2546 17.3966 21.8947 16.4646C20.9881 15.7656 20.0815 15.2995 19.1749 14.3675C18.2683 13.6685 17.3616 12.7365 16.9083 11.5715C16.9083 11.3385 16.6817 11.1055 16.455 10.8725C16.455 10.6395 16.2284 10.6395 16.2284 10.8725C15.7751 11.3385 15.7751 11.3385 15.3217 10.8725C14.8684 10.6395 14.4151 9.9405 13.7352 9.4745C13.7352 9.24149 13.5085 9.24149 13.2819 9.00849Z" fill="#F8F1DE"/>
<path d="M15.3213 46.9879C15.5479 46.9879 16.0013 46.9879 16.4546 46.9879C16.4546 46.9879 16.6812 46.9879 16.6812 47.2209L16.4546 47.4539C15.7746 47.4539 15.3213 47.4539 14.6413 47.4539C14.4147 47.4539 14.188 47.4539 13.7347 47.2209C13.7347 47.2209 13.5081 47.2209 13.5081 46.9879C13.5081 46.9879 13.5081 46.9879 13.7347 46.7549C13.9614 46.5219 14.4147 46.5219 14.6413 46.5219C14.868 46.7549 15.0946 46.9879 15.3213 46.9879Z" fill="#F8F1DE"/>
<path d="M52.0385 87.0644C52.0385 87.2977 52.0385 87.2977 52.0385 87.0644C51.8118 87.2977 51.5851 87.2977 51.3585 87.2977C51.3585 87.2977 51.1318 87.2977 51.1318 87.0644C51.1318 87.0644 51.1318 86.8311 51.3585 86.8311C51.5851 87.0644 51.8118 87.0644 52.0385 87.0644Z" fill="#F8F1DE"/>
<path d="M54.0793 43.7253H53.8526C53.626 43.4928 53.626 43.4928 53.8526 43.4928C54.0793 43.4928 54.0793 43.4928 54.3059 43.4928L54.5326 43.7253C54.5326 43.7253 54.3059 43.7253 54.0793 43.7253Z" fill="#F8F1DE"/>
<path d="M31.1867 46.9883C31.1867 47.2217 30.9601 47.2217 30.9601 47.2217C30.7334 47.2217 30.7334 47.2217 30.7334 46.9883C30.7334 46.755 30.9601 46.755 30.9601 46.755C30.9601 46.755 30.9601 46.9883 31.1867 46.9883Z" fill="#F8F1DE"/>
</svg>
