<svg width="50" height="50" viewBox="0 0 50 50" fill="none" xmlns="http://www.w3.org/2000/svg">
<path d="M24.7833 48.5803C24.6366 48.4529 24.7833 48.1982 24.6366 48.0708C24.6366 48.1982 24.49 48.3255 24.49 48.4529C24.49 48.5803 24.49 48.7077 24.49 48.835C24.49 49.0898 24.49 49.0898 24.1967 49.0898C24.0501 49.0898 23.9034 49.0898 23.9034 49.0898C23.6101 49.0898 23.3169 49.0898 23.0236 49.2172C22.7303 49.2172 22.437 49.3446 22.2904 49.3446C21.9971 49.3446 21.7038 49.3446 21.4105 49.3446C20.9706 49.3446 20.6773 49.3446 20.2374 49.3446C19.6508 49.3446 19.0642 49.3446 18.4776 49.3446C18.4776 49.3446 18.4776 49.3446 18.4776 49.4719C18.4776 49.4719 18.6243 49.5993 18.4776 49.5993C18.4776 49.5993 18.331 49.5993 18.331 49.4719C18.1844 49.4719 18.331 49.3446 18.331 49.3446C17.8911 49.3446 17.3045 49.3446 16.8646 49.3446C16.4246 49.3446 15.9847 49.3446 15.6914 49.3446C15.3981 49.3446 15.1049 49.3446 14.8116 49.3446H14.6649C14.5183 49.4719 14.3716 49.4719 14.225 49.4719C13.3451 49.4719 12.4653 49.4719 11.7321 49.4719C11.1455 49.4719 10.7056 49.4719 10.119 49.4719C9.82572 49.4719 9.53244 49.4719 9.38579 49.4719H9.23915C8.94587 49.3446 8.65258 49.3446 8.50594 49.5993C8.50594 49.5993 8.35929 49.7267 8.35929 49.5993C8.06601 49.5993 7.77272 49.5993 7.47944 49.5993C7.3328 49.5993 7.03951 49.5993 6.89287 49.5993C6.89287 49.5993 6.74623 49.5993 6.74623 49.4719C6.59958 49.3446 6.3063 49.3446 6.01301 49.3446C6.01301 49.4719 6.15965 49.4719 6.15965 49.4719C6.15965 49.5993 6.01301 49.4719 5.86637 49.4719C4.98651 49.4719 3.96001 49.4719 3.08016 49.4719C2.78687 49.4719 2.49359 49.4719 2.05366 49.4719C1.61373 49.4719 1.32044 49.4719 0.880516 49.3446C0.733874 49.3446 0.733873 49.3446 0.733873 49.2172C0.587231 49.0898 0.440588 48.8351 0.293945 48.7077C0.293945 48.7077 0.293945 48.5803 0.293945 48.4529C0.293945 46.1601 0.293945 43.74 0.293945 41.4472C0.293945 39.4091 0.293945 37.2437 0.293945 35.2057C0.293945 34.6962 0.293945 34.314 0.293945 33.8045C0.293945 33.5498 0.293945 33.295 0.293945 33.0403C0.293945 32.9129 0.293945 32.6581 0.293945 32.5307C0.293945 32.276 0.293945 32.1486 0.293945 31.8939V31.7665C0.293945 31.3843 0.293945 31.0022 0.293945 30.6201C0.293945 30.4927 0.293945 30.2379 0.293945 30.1106V29.9832C0.440588 29.8558 0.440588 29.8558 0.440588 29.7284V29.6011C0.440588 29.3463 0.440588 28.9642 0.293945 28.7094C0.293945 28.582 0.293945 28.4547 0.293945 28.3273C0.293945 27.9452 0.293945 27.6904 0.293945 27.3083V27.1809C0.587231 26.9261 0.733873 26.7988 1.02716 26.544C1.1738 26.544 1.1738 26.4166 1.32044 26.4166C2.05366 26.4166 2.78687 26.4166 3.52009 26.4166C5.86637 26.4166 8.06601 26.4166 10.4123 26.4166C11.2921 26.4166 12.172 26.4166 13.0519 26.4166C13.6384 26.4166 14.225 26.4166 14.8116 26.4166C15.2515 26.4166 15.6914 26.4166 16.1314 26.4166C16.5713 26.4166 16.8646 26.4166 17.3045 26.4166C17.8911 26.4166 18.4776 26.4166 19.0642 26.4166C19.9441 26.4166 20.8239 26.4166 21.8504 26.4166C22.1437 26.4166 22.1437 26.4166 22.1437 26.6714C22.1437 26.9261 22.1437 27.1809 21.9971 27.4356C21.9971 27.6904 21.8504 28.0725 21.8504 28.3273C21.8504 28.582 21.7038 28.9642 21.7038 29.2189C21.5571 29.6011 21.5571 29.8558 21.4105 30.2379C21.2639 30.7475 21.1172 31.257 20.9706 31.7665C20.8239 32.5307 20.5306 33.1676 20.2374 33.8045C19.9441 34.5688 19.5041 35.2057 18.9176 35.8426C18.6243 36.2247 18.1844 36.7342 17.8911 37.1163C17.3045 37.7532 16.7179 38.2627 15.9847 38.8996C15.6914 39.1544 15.2515 39.5365 14.9582 39.7913C14.6649 40.046 14.225 40.4281 13.9317 40.6829C13.6384 40.9377 13.3451 41.1924 12.9052 41.4472C12.3186 41.8293 11.8787 42.3388 11.2921 42.8483C11.1455 42.9757 10.9989 42.9757 10.9989 42.8483C10.8522 42.7209 10.7056 42.7209 10.5589 42.8483C10.2657 43.1031 9.97236 43.4852 9.82572 43.74C9.38579 44.2495 9.09251 44.8863 8.79922 45.3959C8.50594 45.778 8.35929 46.2875 8.35929 46.6696C8.35929 47.0518 8.3593 47.5613 8.50594 47.9434C8.65258 48.1982 8.79922 48.3255 9.09251 48.5803C9.23915 48.5803 9.23915 48.5803 9.38579 48.4529C9.67908 48.0708 9.82572 47.6887 10.119 47.4339C10.5589 46.6696 10.9989 45.9054 11.5854 45.1411C11.2921 45.0137 11.7321 44.6316 12.0254 44.2495C12.3186 43.8673 12.7586 43.6126 13.0519 43.2304C13.4918 42.8483 13.9317 42.4662 14.3716 42.084C14.6649 41.7019 15.1049 41.4472 15.5448 41.1924C16.278 40.5555 17.1579 40.046 18.0377 39.5365C18.4776 39.2817 19.0642 38.8996 19.5041 38.6449C19.6508 38.6449 19.6508 38.6449 19.6508 38.7722C19.7974 39.2817 19.7974 39.7913 19.6508 40.3008C19.5041 41.065 19.2109 41.8293 19.0642 42.5936C18.9176 43.1031 18.7709 43.6126 18.6243 44.1221C18.6243 44.2495 18.6243 44.3768 18.6243 44.6316C18.6243 45.0137 18.4776 45.2685 18.331 45.5232C18.1844 45.6506 18.1844 45.778 18.0377 45.9054C17.8911 46.1601 18.0377 46.2875 18.1844 46.4149C18.4776 46.6696 18.7709 46.9244 19.0642 47.0518C19.7974 47.4339 20.384 47.816 21.1172 48.1982C21.5571 48.3255 21.9971 48.5803 22.437 48.5803C22.8769 48.7077 23.3169 48.7077 23.7568 48.5803C23.7568 48.5803 23.9034 48.5803 23.9034 48.4529C23.9034 48.3255 23.7568 48.3255 23.7568 48.1982C23.4635 47.9434 23.0236 47.6887 22.5836 47.5613C22.1437 47.3065 21.7038 47.0518 21.4105 46.797C21.1172 46.5423 20.8239 46.1601 20.6773 45.778C20.5306 45.5232 20.5306 45.3959 20.5306 45.1411C20.5306 44.2495 20.6773 43.4852 20.9706 42.7209C21.1172 42.084 21.4105 41.3198 21.7038 40.6829C21.9971 40.1734 22.2904 39.6639 22.5836 39.1544C23.1702 38.1353 23.6101 37.2437 24.1967 36.2247C24.3433 35.9699 24.49 35.8426 24.49 35.5878L24.6366 35.4604V35.5878C24.6366 36.8616 24.6366 38.2627 24.6366 39.5365C24.6366 40.8103 24.6366 42.084 24.6366 43.3578C24.6366 43.74 24.6366 44.2495 24.6366 44.6316C24.6366 44.759 24.6366 45.0137 24.6366 45.1411C24.6366 45.3959 24.6366 45.6506 24.6366 45.778C24.6366 46.2875 24.6366 46.797 24.6366 47.3065C24.7833 47.9434 24.9299 48.1982 24.7833 48.5803ZM0.587231 46.797C0.440588 46.5423 0.440588 46.6696 0.587231 46.797C0.440588 46.6696 0.293945 46.797 0.293945 46.797C0.293945 46.797 0.293945 46.797 0.587231 46.797C0.440588 46.797 0.440588 46.797 0.587231 46.797Z" fill="#F8F1DE"/>
<path d="M36.8069 23.487C37.6867 23.487 38.2733 23.487 39.0065 23.487H39.1531C39.0065 23.487 39.0065 23.487 38.8598 23.487C38.5666 23.487 38.1266 23.487 37.8333 23.487C37.2468 23.487 36.8069 23.487 36.2203 23.487C35.927 23.487 35.6337 23.487 35.1938 23.487C35.0471 23.487 34.9005 23.487 34.7539 23.3596C34.7539 23.2322 34.6072 23.2322 34.4606 23.2322C33.874 23.2322 33.4341 23.2322 32.8475 23.2322C32.9941 23.2322 33.2874 23.2322 33.4341 23.3596C32.9941 23.6143 31.5277 23.6143 31.3811 23.3596C31.5277 23.3596 31.6744 23.3596 31.821 23.2322C31.5277 23.1048 30.9411 23.1048 30.7945 23.2322L30.9411 23.3596C31.0878 23.487 30.9411 23.487 30.9411 23.487C30.6479 23.487 30.2079 23.487 29.9146 23.487C29.768 23.487 29.768 23.3596 29.768 23.3596C29.768 23.2322 29.768 22.9774 29.768 22.8501C29.768 22.5953 29.9146 22.3406 29.9146 22.0858C29.9146 21.831 30.0613 21.5763 30.0613 21.3215C30.0613 21.0668 30.0613 20.812 30.2079 20.5573C30.2079 20.3025 30.3546 19.9204 30.3546 19.6656C30.3546 19.5383 30.3546 19.4109 30.3546 19.2835C30.3546 19.0287 30.3546 18.774 30.3546 18.5192C30.3546 17.755 30.3546 16.8633 30.3546 16.0991C30.3546 15.7169 30.3546 15.3348 30.3546 14.9527C30.3546 14.5705 30.3546 14.1884 30.3546 13.8063C30.3546 13.2968 30.5012 12.7873 30.7945 12.2777C31.0878 11.6409 31.5277 11.1313 31.821 10.6218C32.2609 9.98495 32.5542 9.34806 32.9941 8.71117C33.4341 8.07429 33.7274 7.4374 34.0206 6.67313C34.4606 5.90887 34.7539 5.14461 35.1938 4.38034C35.4871 3.74345 35.7804 3.10657 35.927 2.46968C36.0736 2.08755 36.2203 1.70541 36.2203 1.32328C36.0736 1.32328 36.0736 1.45066 35.927 1.57804C35.7804 2.21492 35.4871 2.85181 35.0471 3.36132C34.9005 3.61608 34.4606 3.61608 34.1673 3.61608C34.1673 3.61608 34.0206 3.61608 33.874 3.61608C33.874 3.61608 33.7274 3.61608 33.7274 3.74345V3.87083C33.7274 4.6351 33.5807 5.27198 33.2874 5.90887C33.1408 6.291 32.8475 6.67313 32.7009 7.18264C32.2609 7.94691 31.821 8.5838 31.2344 9.34806C30.9411 9.73019 30.6479 9.98495 30.3546 10.3671C30.2079 10.4945 30.0613 10.7492 29.768 10.8766C29.3281 11.2587 28.7415 11.6409 27.8616 11.8956C27.8616 11.8956 27.715 11.8956 27.5684 11.8956C27.5684 11.7682 27.5684 11.7682 27.5684 11.6409C27.5684 8.5838 27.5684 5.52674 27.5684 2.3423C27.5684 2.08755 27.5684 1.83279 27.5684 1.57804C27.5684 1.32328 27.5684 1.06853 27.8616 0.94115C28.0083 0.813773 28.1549 0.686395 28.3016 0.559018C28.1549 0.431641 28.3016 0.431641 28.4482 0.431641C29.3281 0.431641 30.2079 0.431641 31.0878 0.431641C32.9941 0.431641 34.9005 0.431641 36.8069 0.431641C39.1531 0.431641 41.6461 0.431641 43.9923 0.431641C45.3121 0.431641 46.6319 0.431641 47.9517 0.431641C48.0983 0.431641 48.3916 0.431641 48.5383 0.686395C48.6849 0.813773 48.9782 1.06853 49.1248 1.19591C49.2715 1.32328 49.2715 1.32328 48.9782 1.45066C48.8316 1.45066 48.8316 1.45066 48.8316 1.57804C48.8316 1.96017 48.8316 2.21492 48.8316 2.59706C48.8316 2.97919 48.8316 3.36132 48.8316 3.74345C48.8316 3.99821 48.6849 4.38034 48.6849 4.6351C48.6849 4.76247 48.6849 5.01723 48.6849 5.14461C48.6849 6.03625 48.6849 6.92789 48.6849 7.94691C48.6849 10.3671 48.6849 12.6599 48.6849 15.08C48.6849 15.8443 48.6849 16.6086 48.6849 17.3728C48.6849 17.755 48.8316 18.1371 48.8316 18.5192C48.8316 18.6466 48.8316 18.9014 48.8316 19.0287C48.6849 19.4109 48.6849 19.793 48.6849 20.1751C48.6849 20.5573 48.6849 21.0668 48.6849 21.4489C48.6849 21.7037 48.6849 22.0858 48.5383 22.3406C48.3916 22.3406 48.3916 22.3406 48.3916 22.4679C48.3916 22.7227 48.3916 22.9774 48.3916 23.2322C48.3916 23.3596 48.3916 23.3596 48.245 23.3596C48.0983 23.3596 47.8051 23.3596 47.6584 23.3596C47.3651 23.3596 47.2185 23.3596 46.9252 23.3596C46.3386 23.3596 45.8987 23.3596 45.3121 23.3596C44.2856 23.3596 43.1125 23.3596 42.086 23.3596C41.2061 23.3596 40.4729 23.3596 39.5931 23.3596C39.2998 23.3596 38.8598 23.3596 38.5666 23.3596C38.1266 23.3596 37.8334 23.3596 37.3934 23.3596C37.2468 23.3596 37.1001 23.3596 36.8069 23.487Z" fill="#F8F1DE"/>
<path d="M46.3389 46.0327C46.3389 46.2874 46.3389 46.5422 46.3389 46.7969C46.3389 47.0517 46.3389 47.0517 46.0456 47.0517C45.6057 47.0517 45.3124 47.0517 44.8725 47.0517C44.1393 47.0517 43.5527 47.0517 42.8195 47.0517C42.3796 47.0517 41.793 47.0517 41.3531 47.0517C41.2064 47.0517 41.0598 47.0517 40.9131 47.1791C40.7665 47.3064 40.6199 47.3064 40.6199 47.1791C40.6199 47.1791 40.6199 47.0517 40.7665 46.9243C40.4732 46.9243 40.1799 46.9243 40.0333 46.9243C38.5669 46.9243 37.2471 46.9243 35.7806 46.9243C35.4874 46.9243 35.3407 46.9243 35.0474 47.0517C35.1941 47.0517 35.1941 47.1791 35.3407 47.1791C36.0739 47.1791 36.8071 47.1791 37.3937 47.1791H37.5404C37.5404 47.3064 37.5404 47.3064 37.3937 47.3064C37.1004 47.3064 36.9538 47.4338 36.6605 47.4338C35.9273 47.4338 35.1941 47.4338 34.4609 47.4338C34.1676 47.4338 33.7276 47.4338 33.4344 47.4338C33.2877 47.4338 33.2877 47.4338 33.1411 47.3064C33.1411 47.1791 32.9944 47.1791 32.8478 47.1791C32.4079 47.1791 31.9679 47.1791 31.3814 47.1791C31.528 47.1791 31.6746 47.1791 31.8213 47.3064H31.9679C31.6746 47.5612 31.528 47.5612 31.3814 47.5612C30.9414 47.5612 30.6481 47.5612 30.2082 47.5612C30.0616 47.5612 30.0616 47.5612 29.9149 47.4338C29.9149 47.4338 30.0616 47.4338 30.2082 47.3064C30.0616 47.3064 29.9149 47.3064 29.9149 47.3064C29.7683 47.3064 29.7683 47.4338 29.7683 47.4338C29.7683 47.5612 29.7683 47.5612 29.6216 47.5612C29.3284 47.5612 29.0351 47.6886 28.5951 47.6886C28.3019 47.6886 27.8619 47.6886 27.5686 47.6886C27.2754 47.6886 27.1287 47.5612 26.9821 47.4338C26.8354 47.3064 26.6888 47.0517 26.5422 46.9243C26.3955 46.9243 26.3955 46.7969 26.3955 46.6695C26.3955 42.084 26.3955 37.4984 26.3955 33.0402C26.3955 32.658 26.5422 32.4033 26.6888 32.1485C27.1287 30.8747 27.7153 29.7283 28.1552 28.4546C28.4485 27.4356 28.8884 26.5439 29.1817 25.5249C29.1817 25.3975 29.3284 25.2701 29.3284 25.1428C29.3284 25.0154 29.6216 25.0154 29.7683 25.0154C30.5015 25.0154 31.0881 25.0154 31.8213 25.0154C32.2612 25.0154 32.5545 25.0154 32.9944 25.0154C37.3937 25.0154 41.793 25.0154 46.1923 25.0154C46.3389 25.0154 46.4856 25.0154 46.6322 25.1428C46.7788 25.2701 46.9255 25.3975 46.9255 25.5249C47.0721 25.7796 47.2188 26.0344 47.0721 26.2892C46.9255 26.4165 46.9255 26.6713 47.0721 26.7987C47.0721 26.926 47.0721 27.0534 47.0721 27.1808C47.0721 27.6903 47.0721 28.0724 47.0721 28.5819C47.0721 29.0915 47.0721 29.4736 47.0721 29.9831C47.0721 30.3652 47.0721 30.7474 47.0721 31.1295C47.0721 32.1485 47.0721 33.1675 47.0721 34.1866C47.0721 35.333 47.0721 36.4794 47.0721 37.6257C47.0721 38.0079 47.0721 38.39 47.0721 38.7721C47.0721 39.1543 47.0721 39.5364 47.0721 39.9185C47.0721 40.1733 47.0721 40.3007 47.0721 40.5554C47.0721 41.0649 47.0721 41.5744 47.2188 41.9566C47.2188 42.2113 47.2188 42.3387 47.2188 42.5935C47.2188 42.8482 47.2188 43.103 47.0721 43.3577C47.0721 43.4851 47.0721 43.4851 47.0721 43.6125C47.0721 43.9946 47.0721 44.5041 47.0721 44.8863C47.0721 45.2684 47.0721 45.5231 47.0721 45.9053C47.0721 46.0327 47.0721 46.0327 47.0721 46.16C46.4856 46.16 46.4856 46.16 46.3389 46.0327Z" fill="#F8F1DE"/>
<path d="M7.9185 4.76252C8.06514 5.14465 8.35842 5.27203 8.65171 5.52678C8.94499 5.90892 9.23828 6.16367 9.53157 6.5458C9.82485 6.92794 10.1181 7.31007 10.5581 7.56482C10.998 7.94696 11.2913 8.45647 11.7312 8.8386C12.1711 9.34811 12.4644 9.85762 13.051 10.2397C13.3443 10.8766 13.9308 11.1314 14.6641 11.2588C15.2506 11.3861 15.6906 11.5135 16.2771 11.6409C16.8637 11.7683 17.3036 11.8957 17.7436 12.1504C18.3301 12.4052 18.7701 12.6599 19.21 13.0421C19.5033 13.2968 19.9432 13.5516 20.2365 13.8063C20.6764 14.1884 21.263 14.5706 21.7029 14.9527C22.2895 15.4622 22.8761 16.0991 23.4626 16.736C23.7559 17.1181 24.0492 17.6276 24.1958 18.1371C24.1958 18.2645 24.1958 18.5193 24.1958 18.774C24.1958 19.2835 24.1958 19.6657 24.0492 20.1752C23.9025 20.5573 23.6093 20.9394 23.4626 21.1942C23.316 21.5763 23.0227 21.8311 22.8761 22.2132C22.5828 22.5954 22.4361 22.9775 22.4361 23.487C22.2895 23.8691 22.2895 24.2513 22.1428 24.6334C22.1428 24.8882 22.1428 25.1429 21.9962 25.2703C21.9962 25.3977 21.9962 25.3977 21.8496 25.3977C21.1163 25.3977 20.5298 25.3977 19.7966 25.3977C18.7701 25.3977 17.7436 25.3977 16.7171 25.3977C15.9838 25.3977 15.2506 25.3977 14.5174 25.3977H14.6641C15.104 25.3977 15.5439 25.3977 15.8372 25.3977C15.8372 25.3977 16.1305 25.3977 15.9838 25.525C15.9838 25.525 15.8372 25.525 15.6906 25.525C15.3973 25.525 15.104 25.525 14.6641 25.525C13.7842 25.525 12.9043 25.525 11.8778 25.525C11.7312 25.525 11.4379 25.525 11.2913 25.3977C11.2913 25.3977 11.1446 25.2703 11.1446 25.3977V25.525C11.1446 25.525 11.1446 25.525 11.1446 25.6524C10.998 25.7798 10.998 25.7798 10.8514 25.7798C10.8514 25.7798 10.7047 25.7798 10.7047 25.6524C10.7047 25.3977 10.4114 25.3977 10.2648 25.3977C9.53157 25.2703 8.65171 25.3977 7.9185 25.3977C7.77185 25.3977 7.62521 25.3977 7.33193 25.3977C7.47857 25.3977 7.62521 25.525 7.62521 25.525C7.62521 25.525 7.77185 25.525 7.77185 25.6524C7.77185 25.6524 7.77185 25.6524 7.62521 25.6524C7.47857 25.6524 7.47857 25.6524 7.33193 25.6524C6.45207 25.7798 5.71886 25.7798 4.839 25.7798C4.54571 25.7798 4.39907 25.7798 4.25243 25.525L4.10579 25.3977C3.8125 25.2703 3.8125 25.0155 3.8125 24.7608C3.8125 21.1942 3.8125 17.755 3.8125 14.1884C3.8125 10.6219 3.8125 6.92794 3.8125 3.36137C3.8125 3.10661 3.8125 2.85186 4.10579 2.72448C4.39907 2.72448 4.54571 2.5971 4.69236 2.46973H4.839C5.42557 2.46973 6.15878 2.46973 6.74535 2.46973C9.82485 2.46973 13.051 2.46973 16.1305 2.46973C16.4238 2.46973 16.8637 2.46973 17.157 2.46973C18.0368 2.46973 18.9167 2.46973 19.7966 2.46973C20.5298 2.46973 21.4096 2.46973 22.1428 2.46973C23.0227 2.46973 23.9025 2.46973 24.6358 2.46973C24.7824 2.46973 24.9291 2.46973 24.9291 2.5971C25.0757 2.72448 25.369 2.97924 25.5156 3.10661C25.6623 3.23399 25.6623 3.23399 25.6623 3.36137C25.6623 4.38039 25.6623 5.39941 25.6623 6.41843C25.6623 7.81958 25.6623 9.22073 25.6623 10.6219C25.6623 10.8766 25.6623 11.1314 25.5156 11.3861C25.5156 11.3861 25.5156 11.5135 25.369 11.5135C25.369 11.5135 25.2223 11.5135 25.2223 11.3861C25.0757 11.2588 25.0757 11.1314 25.0757 11.004C24.9291 10.6219 24.9291 10.1124 24.9291 9.73024C24.9291 9.22073 25.0757 8.8386 25.0757 8.32909C25.0757 7.81958 25.2223 7.43745 24.9291 6.92794C24.7824 6.67318 24.6358 6.5458 24.3425 6.41843C24.0492 6.29105 23.7559 6.16367 23.316 6.03629C22.5828 5.90892 21.8496 6.03629 21.263 6.67318C20.9697 7.05531 20.6764 7.56482 20.5298 8.07433C20.3831 8.58384 20.3831 9.09335 20.6764 9.60286C20.8231 9.85762 20.9697 10.1124 21.263 10.3671C21.4096 10.4945 21.7029 10.6219 21.8496 10.8766C21.9962 11.004 21.9962 11.004 21.8496 11.1314C21.8496 11.1314 21.8496 11.1314 21.7029 11.1314C21.4096 11.1314 20.9697 11.1314 20.6764 11.1314C19.7966 11.1314 18.9167 11.004 18.1835 10.7493C17.4503 10.4945 16.7171 10.2397 15.9838 9.98499C15.2506 9.73024 14.3708 9.34811 13.4909 8.8386C12.9043 8.45647 12.3178 8.20171 11.7312 7.6922C11.1446 7.31007 10.5581 6.80056 10.2648 6.16367C10.2648 6.03629 10.1181 5.90892 9.97149 5.78154C9.97149 5.65416 9.82485 5.65416 9.82485 5.78154C9.53157 6.03629 9.53157 6.03629 9.23828 5.78154C8.945 5.65416 8.65171 5.27203 8.21178 5.01727C8.21178 4.8899 8.06514 4.8899 7.9185 4.76252Z" fill="#F8F1DE"/>
<path d="M9.23857 25.525C9.38521 25.525 9.6785 25.525 9.97179 25.525C9.97179 25.525 10.1184 25.525 10.1184 25.6524L9.97179 25.7798C9.53186 25.7798 9.23857 25.7798 8.79864 25.7798C8.652 25.7798 8.50536 25.7798 8.21207 25.6524C8.21207 25.6524 8.06543 25.6524 8.06543 25.525C8.06543 25.525 8.06543 25.525 8.21207 25.3976C8.35872 25.2703 8.652 25.2703 8.79864 25.2703C8.94529 25.3976 9.09193 25.525 9.23857 25.525Z" fill="#F8F1DE"/>
<path d="M32.9948 47.4339C32.9948 47.5613 32.9948 47.5613 32.9948 47.4339C32.8481 47.5613 32.7015 47.5613 32.5548 47.5613C32.5548 47.5613 32.4082 47.5613 32.4082 47.4339C32.4082 47.4339 32.4082 47.3065 32.5548 47.3065C32.7015 47.4339 32.8481 47.4339 32.9948 47.4339Z" fill="#F8F1DE"/>
<path d="M34.3142 23.7413H34.1676C34.021 23.6144 34.021 23.6144 34.1676 23.6144C34.3142 23.6144 34.3142 23.6144 34.4609 23.6144L34.6075 23.7413C34.6075 23.7413 34.4609 23.7413 34.3142 23.7413Z" fill="#F8F1DE"/>
<path d="M19.5035 25.5251C19.5035 25.6525 19.3568 25.6525 19.3568 25.6525C19.2102 25.6525 19.2102 25.6525 19.2102 25.5251C19.2102 25.3977 19.3568 25.3977 19.3568 25.3977C19.3568 25.3977 19.3568 25.5251 19.5035 25.5251Z" fill="#F8F1DE"/>
</svg>
