<svg width="29" height="28" viewBox="0 0 29 28" fill="none" xmlns="http://www.w3.org/2000/svg">
<path d="M21.7036 5.1405C21.3859 5.1405 21.0753 5.23471 20.8112 5.41122C20.547 5.58772 20.3411 5.8386 20.2195 6.13211C20.098 6.42563 20.0661 6.74861 20.1281 7.06021C20.1901 7.3718 20.3431 7.65802 20.5677 7.88267C20.7924 8.10732 21.0786 8.2603 21.3902 8.32228C21.7018 8.38426 22.0248 8.35246 22.3183 8.23088C22.6118 8.1093 22.8627 7.90341 23.0392 7.63925C23.2157 7.3751 23.3099 7.06453 23.3099 6.74683C23.3099 6.3208 23.1407 5.91223 22.8394 5.61098C22.5382 5.30974 22.1296 5.1405 21.7036 5.1405Z" fill="#F8F1DE"/>
<path d="M14.519 7.31191C13.1751 7.31509 11.8623 7.7167 10.7467 8.46596C9.63111 9.21521 8.76273 10.2785 8.25139 11.5213C7.74005 12.764 7.60872 14.1306 7.87401 15.448C8.1393 16.7654 8.78929 17.9746 9.7418 18.9226C10.6943 19.8706 11.9065 20.5149 13.2252 20.7739C14.5439 21.033 15.9098 20.8952 17.1501 20.378C18.3905 19.8608 19.4496 18.9874 20.1936 17.8682C20.9375 16.7491 21.3329 15.4345 21.3298 14.0906C21.3277 13.1983 21.1498 12.3151 20.8064 11.4916C20.463 10.668 19.9607 9.92014 19.3283 9.29068C18.6958 8.66122 17.9456 8.1625 17.1204 7.82298C16.2952 7.48346 15.4113 7.3098 14.519 7.31191ZM14.519 18.4437C13.6573 18.4469 12.8141 18.1943 12.0961 17.7179C11.3781 17.2415 10.8177 16.5628 10.4858 15.7676C10.1538 14.9725 10.0653 14.0967 10.2315 13.2512C10.3976 12.4057 10.8109 11.6286 11.4191 11.0182C12.0272 10.4078 12.8029 9.99159 13.6477 9.82231C14.4926 9.65304 15.3687 9.7383 16.165 10.0673C16.9614 10.3963 17.6422 10.9542 18.1213 11.6705C18.6003 12.3867 18.856 13.2289 18.856 14.0906C18.856 15.2423 18.3996 16.3471 17.5867 17.1631C16.7738 17.979 15.6707 18.4395 14.519 18.4437Z" fill="#F8F1DE"/>
<path d="M19.9042 27.7743H8.90091C6.70967 27.77 4.60963 26.8966 3.0617 25.3456C1.51377 23.7947 0.644405 21.6929 0.644409 19.5017V8.49839C0.644405 6.30715 1.51377 4.20542 3.0617 2.65448C4.60963 1.10353 6.70967 0.230085 8.90091 0.22583H19.9042C22.0969 0.230075 24.1986 1.10301 25.7491 2.65349C27.2996 4.20398 28.1725 6.30567 28.1768 8.49839V19.5017C28.1725 21.6944 27.2996 23.7961 25.7491 25.3466C24.1986 26.8971 22.0969 27.77 19.9042 27.7743ZM8.90091 2.82807C7.39704 2.82807 5.95478 3.42548 4.89139 4.48887C3.828 5.55226 3.23059 6.99453 3.23059 8.49839V19.5017C3.23059 21.0056 3.828 22.4478 4.89139 23.5112C5.95478 24.5746 7.39704 25.172 8.90091 25.172H19.9042C21.4096 25.172 22.8535 24.5751 23.9194 23.5122C24.9854 22.4493 25.5863 21.007 25.5906 19.5017V8.49839C25.5863 6.99305 24.9854 5.55082 23.9194 4.48789C22.8535 3.42496 21.4096 2.82807 19.9042 2.82807H8.90091Z" fill="#F8F1DE"/>
</svg>
