<svg width="28" height="28" viewBox="0 0 28 28" fill="none" xmlns="http://www.w3.org/2000/svg">
<path d="M23.3345 23.6418H19.2767V17.2869C19.2767 15.7715 19.2497 13.8208 17.1662 13.8208C15.0528 13.8208 14.7294 15.4718 14.7294 17.1766V23.6414H10.6716V10.5731H14.5671V12.359H14.6216C15.0115 11.6925 15.5748 11.1441 16.2517 10.7724C16.9285 10.4006 17.6935 10.2194 18.4652 10.2481C22.5779 10.2481 23.3362 12.9534 23.3362 16.4728L23.3345 23.6418ZM6.09305 8.78678C5.62732 8.78687 5.172 8.64884 4.78471 8.39015C4.39742 8.13146 4.09556 7.76373 3.91725 7.33347C3.73894 6.9032 3.69221 6.42972 3.78299 5.9729C3.87377 5.51609 4.09798 5.09645 4.42724 4.76705C4.75651 4.43766 5.17605 4.2133 5.63282 4.12236C6.08959 4.03141 6.56306 4.07796 6.99338 4.25612C7.4237 4.43428 7.79152 4.73604 8.05033 5.12325C8.30915 5.51046 8.44735 5.96573 8.44743 6.43148C8.44749 6.74073 8.38662 7.04696 8.26834 7.33269C8.15005 7.61841 7.97666 7.87805 7.75803 8.09676C7.53941 8.31546 7.27983 8.48897 6.99415 8.60736C6.70848 8.72576 6.40229 8.78673 6.09305 8.78678ZM8.12195 23.6418H4.05992V10.5731H8.12195V23.6418ZM25.3575 0.308629H2.02088C1.4912 0.302651 0.980796 0.507212 0.601862 0.877361C0.222928 1.24751 0.0064644 1.75296 0 2.28265V25.7169C0.00624315 26.2468 0.22258 26.7526 0.601501 27.1232C0.980422 27.4937 1.49094 27.6987 2.02088 27.693H25.3575C25.8885 27.6997 26.4004 27.4953 26.7809 27.1248C27.1613 26.7543 27.3791 26.2479 27.3864 25.7169V2.28096C27.3788 1.75022 27.1609 1.24419 26.7805 0.874054C26.4 0.503914 25.8882 0.299937 25.3575 0.306937" fill="#F8F1DE"/>
</svg>
