<svg width="16" height="19" viewBox="0 0 16 19" fill="none" xmlns="http://www.w3.org/2000/svg">
<path d="M0.5 3.63754C0.5 11.6716 6.28299 18.1845 13.4167 18.1845C13.7385 18.1845 14.0576 18.1712 14.3736 18.1451C14.7362 18.1152 14.9174 18.1003 15.0825 17.9933C15.2192 17.9047 15.3487 17.7476 15.4172 17.5876C15.5 17.3944 15.5 17.1691 15.5 16.7185V14.0744C15.5 13.6955 15.5 13.506 15.4446 13.3436C15.3957 13.2001 15.3162 13.0724 15.2132 12.9716C15.0967 12.8575 14.9385 12.7927 14.6223 12.6632L11.95 11.5688C11.5821 11.4182 11.3981 11.3428 11.2236 11.3556C11.0697 11.3668 10.9216 11.4261 10.7958 11.5265C10.6531 11.6403 10.5524 11.8293 10.351 12.2075L9.66667 13.4919C7.45842 12.3656 5.66825 10.3469 4.66667 7.86084L5.80719 7.09015C6.14288 6.86332 6.31072 6.7499 6.41183 6.58921C6.501 6.44752 6.55358 6.28073 6.56358 6.10742C6.57492 5.91087 6.508 5.7037 6.37425 5.28936L5.40249 2.27971C5.2875 1.92359 5.23001 1.74553 5.12868 1.6142C5.03918 1.49819 4.92574 1.40871 4.79835 1.35362C4.65413 1.29126 4.4859 1.29126 4.14943 1.29126H1.80167C1.40157 1.29126 1.20151 1.29126 1.02998 1.38441C0.887917 1.46156 0.74845 1.60755 0.66975 1.76148C0.574733 1.94734 0.561458 2.15152 0.534908 2.55987C0.511775 2.91569 0.5 3.27507 0.5 3.63754Z" stroke="#F8F1DE" stroke-linecap="round" stroke-linejoin="round"/>
</svg>
