<svg width="27" height="22" viewBox="0 0 27 22" fill="none" xmlns="http://www.w3.org/2000/svg">
<path d="M26.0868 2.9325C25.2481 3.29398 24.3661 3.54494 23.463 3.6791C23.8841 3.6791 24.4996 2.85136 24.7587 2.54298C25.1431 2.06016 25.4342 1.50974 25.6171 0.919948C25.6171 0.919948 25.6171 0.806336 25.6171 0.773875C25.5949 0.761055 25.5698 0.754304 25.5442 0.754304C25.5186 0.754304 25.4935 0.761055 25.4713 0.773875C24.4936 1.29676 23.4544 1.6948 22.3779 1.95869C22.3454 1.97575 22.3093 1.98466 22.2726 1.98466C22.2359 1.98466 22.1998 1.97575 22.1673 1.95869C22.0838 1.85382 21.9917 1.7561 21.892 1.66654C21.4443 1.28109 20.9351 0.973839 20.3857 0.757641C19.6588 0.454807 18.8711 0.326955 18.0859 0.384345C17.3267 0.431859 16.5866 0.642186 15.9156 1.0011C15.2349 1.35672 14.6341 1.84832 14.1502 2.4456C13.6481 3.06236 13.2886 3.78293 13.0975 4.55553C12.9517 5.28952 12.9517 6.0451 13.0975 6.77909C13.0975 6.90893 13.0975 6.92516 12.9841 6.90893C8.88368 6.49298 5.08739 4.5532 2.34322 1.47178C2.21365 1.34194 2.14887 1.34194 2.05169 1.47178C1.49514 2.49446 1.28429 3.67033 1.45072 4.82319C1.61716 5.97606 2.15192 7.04384 2.97487 7.86652C3.17959 8.06836 3.39591 8.25804 3.62272 8.43458C2.90703 8.37938 2.20866 8.18651 1.5658 7.86652C1.43623 7.78537 1.38765 7.86652 1.37145 7.9639C1.3476 8.16879 1.3476 8.37576 1.37145 8.58065C1.48903 9.54223 1.8601 10.4551 2.4465 11.2253C3.03289 11.9955 3.81344 12.5952 4.70786 12.9628C4.92361 13.0648 5.15259 13.1358 5.38809 13.1738C4.71845 13.2925 4.03322 13.2925 3.36357 13.1738C3.21781 13.1738 3.16923 13.1738 3.21781 13.3686C3.56429 14.2727 4.1363 15.0727 4.87919 15.6921C5.62209 16.3115 6.51105 16.7298 7.4612 16.9068C7.65555 16.9068 7.83372 16.9068 8.02807 16.9068C8.02807 16.9068 8.22243 16.9068 8.02807 16.9068C7.55839 17.6372 5.90638 18.1728 5.14516 18.5298C3.73997 19.0336 2.24279 19.2274 0.755991 19.0979C0.513048 19.0979 0.464458 19.0979 0.399673 19.0979C0.334889 19.0979 0.399673 19.1953 0.399673 19.244C0.399673 19.2927 1.01514 19.6173 1.32287 19.7958C2.25555 20.2892 3.23833 20.681 4.25437 20.9644C6.87313 21.7542 9.65286 21.8417 12.3159 21.2179C14.9789 20.5942 17.432 19.2812 19.4302 17.4099C20.8666 15.8473 21.9776 14.0132 22.6979 12.015C23.4182 10.0168 23.7333 7.89463 23.625 5.77281C23.625 5.61051 23.8193 5.51312 23.9327 5.43197C24.7279 4.85457 25.4416 4.17213 26.0544 3.40318C26.1419 3.28639 26.1875 3.14343 26.184 2.99743C26.184 2.99743 26.184 2.90004 26.0868 2.9325Z" fill="#F8F1DE"/>
</svg>
