<svg width="27" height="18" viewBox="0 0 27 18" fill="none" xmlns="http://www.w3.org/2000/svg">
<path d="M26.1754 5.64284C26.1754 4.14749 25.5814 2.7134 24.524 1.65603C23.4667 0.598664 22.0326 0.00463867 20.5372 0.00463867H6.08032C4.58498 0.00463867 3.15088 0.598664 2.09351 1.65603C1.03615 2.7134 0.442139 4.14749 0.442139 5.64284V12.3573C0.442139 13.8526 1.03615 15.2867 2.09351 16.3441C3.15088 17.4014 4.58498 17.9955 6.08032 17.9955H20.5372C22.0326 17.9955 23.4667 17.4014 24.524 16.3441C25.5814 15.2867 26.1754 13.8526 26.1754 12.3573V5.64284ZM17.694 9.49801L11.2687 12.7107C11.0117 12.8552 10.1443 12.7107 10.1443 12.3733V5.80346C10.1443 5.49826 11.0117 5.32157 11.2687 5.46614L17.4691 8.83941C17.694 8.98398 17.9671 9.35344 17.694 9.49801Z" fill="#F8F1DE"/>
</svg>
